<?xml version="1.0" standalone="no"?>
<!DOCTYPE svg PUBLIC "-//W3C//DTD SVG 20010904//EN"
 "http://www.w3.org/TR/2001/REC-SVG-20010904/DTD/svg10.dtd">
<svg version="1.0" xmlns="http://www.w3.org/2000/svg"
 width="500.000000pt" height="500.000000pt" viewBox="0 0 500.000000 500.000000"
 preserveAspectRatio="xMidYMid meet">
<metadata>
Created by potrace 1.11, written by Peter Selinger 2001-2013
</metadata>
<g transform="translate(0.000000,500.000000) scale(0.100000,-0.100000)"
fill="#000000" stroke="none">
<path d="M2359 4845 c-1 -6 -1 -12 -1 -15 0 -3 -20 -5 -44 -5 -24 0 -44 5 -44
10 0 6 -5 3 -10 -5 -5 -8 -10 -11 -10 -6 0 5 -7 3 -15 -4 -8 -7 -15 -8 -15 -3
0 5 -9 9 -19 9 -11 0 -17 -4 -14 -8 2 -5 -7 -7 -21 -4 -14 2 -27 -1 -30 -7 -3
-9 -5 -9 -5 0 -1 9 -8 10 -27 2 -15 -5 -29 -8 -31 -5 -2 2 -16 -2 -31 -10 -17
-9 -30 -10 -38 -3 -7 6 -15 4 -23 -5 -7 -8 -21 -13 -32 -11 -10 2 -19 -1 -19
-6 0 -6 -4 -8 -9 -5 -5 4 -12 0 -14 -6 -4 -9 -6 -9 -6 1 -1 11 -5 10 -17 -5
-8 -10 -13 -13 -9 -6 3 6 1 12 -4 12 -6 0 -11 -4 -11 -10 0 -5 -6 -7 -14 -4
-8 3 -17 1 -21 -5 -3 -6 -17 -11 -31 -11 -13 0 -24 -5 -24 -11 0 -6 -7 -9 -15
-5 -8 3 -15 1 -15 -4 0 -5 -12 -7 -26 -4 -19 4 -25 1 -21 -8 3 -8 -2 -14 -12
-15 -9 -1 -25 -4 -36 -6 -11 -3 -24 -6 -28 -6 -5 -1 -5 -7 -1 -13 5 -9 2 -8
-10 1 -15 13 -18 12 -23 -8 -4 -15 -8 -19 -13 -11 -4 7 -13 9 -19 6 -6 -4 -8
-13 -4 -19 4 -8 2 -8 -9 1 -13 10 -17 10 -22 -4 -3 -9 -13 -14 -20 -11 -8 3
-17 -1 -20 -9 -3 -9 -10 -12 -16 -9 -5 3 -10 1 -10 -5 0 -6 -5 -8 -10 -5 -6 3
-13 -1 -16 -9 -3 -9 -11 -13 -16 -10 -6 4 -14 1 -18 -5 -4 -7 -16 -13 -28 -14
-11 0 -19 -4 -16 -8 2 -4 -5 -10 -16 -14 -11 -3 -20 -12 -20 -18 0 -7 -4 -6
-10 3 -7 11 -10 11 -10 2 0 -7 -5 -10 -10 -7 -9 6 -14 -7 -11 -27 0 -4 -6 -5
-14 -2 -8 4 -15 1 -15 -6 0 -6 -5 -8 -10 -5 -5 3 -10 1 -10 -5 0 -6 -4 -9 -9
-6 -5 3 -12 -1 -15 -10 -3 -8 -10 -13 -15 -10 -5 3 -11 -1 -15 -9 -3 -8 -12
-15 -21 -15 -8 0 -15 -5 -15 -11 0 -5 -4 -8 -9 -4 -5 3 -12 -4 -16 -15 -4 -11
-10 -18 -13 -16 -11 7 -45 -21 -38 -32 3 -5 -1 -9 -9 -9 -8 0 -11 5 -8 10 3 6
1 7 -5 3 -7 -4 -12 -14 -12 -21 0 -9 -6 -12 -17 -8 -13 5 -15 2 -10 -11 4 -10
3 -15 -3 -11 -6 3 -13 -1 -16 -9 -3 -9 -13 -16 -21 -16 -8 0 -11 -5 -7 -12 5
-8 2 -9 -9 -5 -10 4 -16 2 -14 -6 1 -7 -4 -11 -12 -9 -8 2 -11 -3 -8 -12 4 -9
3 -15 -1 -13 -11 3 -52 -29 -45 -36 3 -4 -2 -7 -13 -8 -13 0 -14 -2 -5 -6 9
-4 3 -10 -19 -19 -22 -10 -30 -19 -26 -29 3 -9 2 -14 -3 -10 -5 3 -16 -1 -24
-9 -8 -8 -18 -12 -23 -8 -5 4 -4 0 2 -8 8 -11 6 -19 -7 -32 -9 -9 -20 -14 -23
-11 -6 6 -10 -13 -7 -31 1 -5 -5 -6 -14 -3 -9 4 -15 1 -15 -8 0 -8 -5 -15 -11
-15 -5 0 -7 -4 -4 -10 3 -5 -1 -10 -10 -10 -9 0 -14 -4 -11 -9 4 -5 -6 -19
-21 -31 -16 -12 -22 -19 -16 -15 7 3 13 1 13 -4 0 -10 -14 -15 -32 -12 -4 0
-5 -5 -2 -12 2 -7 -5 -22 -16 -34 -11 -12 -20 -27 -20 -33 0 -6 -5 -8 -12 -4
-6 4 -8 3 -4 -4 3 -6 0 -17 -8 -25 -8 -8 -12 -17 -9 -21 4 -3 1 -6 -5 -6 -7 0
-12 -6 -12 -14 0 -8 -7 -17 -16 -20 -8 -3 -12 -10 -9 -16 3 -5 2 -10 -4 -10
-6 0 -7 -7 -4 -17 4 -9 2 -14 -3 -10 -6 3 -16 -3 -23 -15 -10 -16 -10 -19 1
-13 8 4 7 1 -2 -7 -21 -19 -53 -81 -37 -73 6 4 4 0 -5 -8 -10 -8 -15 -17 -11
-20 3 -4 1 -7 -6 -7 -7 0 -9 -4 -6 -10 3 -5 1 -10 -4 -10 -6 0 -10 -3 -9 -7 1
-5 -5 -21 -12 -38 -7 -16 -14 -36 -16 -44 -1 -8 -7 -17 -12 -20 -5 -3 -12 -18
-16 -33 -3 -16 -11 -28 -17 -28 -6 0 -6 -8 2 -21 9 -17 8 -20 -2 -14 -9 6 -11
3 -6 -8 4 -10 2 -17 -4 -17 -6 0 -9 -9 -6 -19 3 -13 1 -18 -8 -14 -9 3 -13 -3
-11 -21 2 -14 0 -26 -5 -26 -4 0 -6 -9 -4 -20 2 -11 -1 -20 -7 -20 -5 0 -7 -7
-4 -16 4 -10 2 -13 -6 -8 -8 5 -9 2 -5 -9 3 -9 1 -19 -5 -23 -7 -4 -6 -9 3
-15 11 -7 10 -9 -3 -9 -9 0 -20 -5 -24 -12 -4 -7 -3 -8 5 -4 8 5 10 0 7 -18
-3 -14 -7 -30 -10 -35 -4 -5 -1 -13 5 -17 8 -5 4 -13 -12 -26 -13 -11 -18 -17
-11 -13 15 8 16 -7 0 -23 -8 -8 -8 -15 2 -27 10 -12 10 -15 -4 -15 -14 0 -15
-4 -6 -20 8 -14 8 -20 0 -20 -6 0 -8 -4 -5 -10 3 -5 1 -10 -6 -10 -8 0 -8 -4
1 -15 8 -10 9 -15 2 -15 -6 0 -9 -6 -6 -14 3 -8 1 -23 -4 -33 -7 -12 -7 -25
-1 -36 7 -12 6 -17 -3 -17 -9 0 -9 -3 2 -10 8 -5 10 -10 4 -10 -5 0 -9 -13 -8
-30 1 -17 -3 -30 -9 -30 -7 0 -5 -5 3 -10 13 -9 13 -10 0 -10 -13 0 -13 -1 0
-10 13 -9 13 -10 0 -10 -13 0 -13 -1 0 -10 13 -9 13 -10 0 -10 -13 0 -13 -1 0
-10 13 -9 13 -10 0 -10 -13 0 -13 -1 0 -10 13 -9 13 -10 0 -10 -13 0 -13 -1 0
-10 13 -9 13 -10 0 -10 -13 0 -13 -1 0 -10 13 -9 13 -10 0 -10 -13 0 -13 -1 0
-11 11 -8 12 -12 3 -16 -9 -3 -10 -10 -3 -23 7 -13 7 -21 -1 -26 -8 -4 -7 -9
2 -15 12 -7 12 -9 0 -9 -10 0 -11 -3 -2 -13 6 -8 8 -17 4 -21 -4 -4 -1 -11 7
-16 8 -6 10 -10 4 -10 -8 0 -9 -11 -4 -35 5 -22 4 -35 -2 -35 -6 0 -3 -11 6
-25 11 -16 12 -25 5 -25 -8 0 -8 -4 1 -15 9 -11 9 -15 1 -15 -7 0 -9 -5 -6
-10 4 -6 12 -7 18 -3 7 4 6 0 -2 -10 -11 -14 -11 -17 0 -17 11 0 11 -2 -1 -10
-12 -8 -12 -10 -1 -10 8 0 11 -7 8 -20 -3 -11 0 -20 6 -20 8 0 7 -4 -2 -9 -9
-6 -9 -10 -2 -12 6 -2 12 -23 14 -46 1 -24 4 -43 7 -43 5 0 9 -19 12 -57 1 -7
6 -13 11 -13 5 0 7 -15 5 -34 -2 -19 -1 -33 3 -30 4 2 10 0 14 -6 3 -5 0 -10
-7 -10 -11 0 -11 -2 0 -9 7 -4 15 -17 17 -27 2 -10 4 -19 5 -19 1 0 3 -9 5
-20 2 -11 9 -21 14 -23 6 -2 11 -8 11 -13 0 -6 -4 -8 -10 -4 -5 3 -3 -7 5 -21
8 -15 11 -32 8 -37 -3 -6 -1 -7 5 -3 8 5 12 -1 12 -17 0 -14 7 -27 15 -31 8
-3 12 -12 9 -21 -3 -8 -1 -15 5 -15 6 0 11 -11 11 -24 0 -14 4 -28 10 -31 6
-3 10 -16 10 -28 0 -18 2 -19 10 -7 8 12 10 9 10 -13 0 -15 6 -30 14 -33 8 -3
13 -14 11 -25 -3 -14 2 -19 18 -19 18 0 19 -2 7 -10 -13 -9 -12 -13 7 -29 12
-10 19 -22 15 -26 -4 -3 2 -13 12 -21 14 -10 16 -14 5 -14 -10 -1 -9 -3 4 -11
9 -6 15 -14 12 -20 -4 -5 4 -13 17 -18 13 -6 17 -10 8 -11 -10 0 -8 -5 7 -13
12 -7 21 -16 21 -21 -1 -9 19 -40 40 -62 7 -8 10 -19 6 -25 -4 -7 -3 -10 2 -7
5 3 15 0 22 -8 7 -8 10 -14 6 -14 -4 0 3 -9 16 -20 13 -11 20 -20 15 -20 -4 0
7 -13 24 -29 17 -16 31 -34 31 -39 0 -6 10 -14 21 -17 17 -6 19 -9 8 -17 -10
-7 -8 -8 9 -5 12 3 20 1 17 -3 -8 -12 6 -41 16 -34 5 3 9 -2 9 -11 0 -9 5 -13
10 -10 6 3 10 1 10 -5 0 -13 45 -60 58 -60 5 0 16 -8 23 -17 13 -17 13 -17 -6
-3 -19 14 -19 14 -6 -2 7 -10 20 -18 27 -18 8 0 14 -4 14 -10 0 -5 7 -10 16
-10 8 0 12 -4 9 -10 -3 -5 1 -10 9 -10 9 0 16 -7 16 -17 0 -9 3 -13 6 -10 4 3
19 -7 35 -24 15 -16 30 -30 33 -29 25 2 30 -1 16 -10 -12 -8 -11 -10 8 -10 12
0 22 -5 22 -12 0 -6 3 -8 7 -5 3 4 13 -2 20 -13 8 -11 19 -18 24 -15 5 4 9 1
9 -5 0 -6 4 -8 10 -5 5 3 10 -1 10 -9 0 -8 5 -18 12 -22 7 -4 8 -3 4 4 -5 8
-2 10 8 6 9 -3 13 -11 9 -17 -4 -6 0 -8 10 -4 11 4 17 1 17 -8 0 -8 6 -14 12
-12 7 1 12 -4 10 -11 -2 -9 4 -12 17 -7 12 3 21 0 25 -10 3 -9 10 -14 15 -11
4 3 17 -4 27 -15 10 -11 23 -18 30 -15 7 3 15 -2 18 -11 4 -9 13 -13 21 -9 9
3 18 -1 21 -9 4 -8 10 -12 15 -9 5 3 9 0 9 -6 0 -6 4 -9 9 -5 5 3 16 -1 24 -9
8 -8 17 -12 21 -9 3 4 6 1 6 -6 0 -7 5 -9 10 -6 6 3 10 1 10 -5 0 -6 4 -8 10
-5 5 3 10 1 10 -5 0 -6 4 -8 10 -5 5 3 10 1 10 -4 0 -6 5 -11 11 -11 5 0 7 5
4 11 -4 6 2 5 14 -3 12 -7 21 -17 21 -22 0 -4 8 -2 17 5 9 8 14 10 11 4 -8
-13 19 -38 27 -25 4 6 13 5 25 -2 10 -7 17 -15 15 -18 -2 -4 2 -7 10 -7 8 0
12 4 10 8 -3 4 13 -2 35 -12 22 -11 45 -17 50 -14 4 3 16 -2 24 -11 9 -9 16
-11 16 -4 0 6 8 4 17 -6 12 -11 18 -13 21 -5 3 8 9 6 18 -6 8 -11 13 -13 14
-5 0 9 6 8 24 -3 19 -13 25 -13 29 -3 4 10 6 10 6 1 1 -7 6 -13 12 -13 5 0 7
6 4 13 -4 6 0 5 7 -5 11 -12 18 -14 32 -6 14 8 17 7 12 -1 -4 -7 1 -11 13 -11
11 0 23 -5 26 -10 4 -7 12 -7 25 0 13 7 21 7 26 -1 3 -6 19 -9 35 -7 17 3 29
0 29 -6 0 -6 4 -5 9 2 7 11 9 11 14 -1 5 -14 34 -16 55 -3 7 4 12 2 12 -5 0
-9 3 -9 14 0 11 9 15 9 19 -1 4 -10 8 -10 16 2 6 9 11 10 11 3 0 -18 43 -20
58 -3 8 8 11 9 7 2 -4 -8 2 -12 17 -12 13 -1 64 -2 115 -3 53 -1 89 2 85 7 -3
5 2 7 10 3 9 -3 21 0 27 6 8 8 11 8 11 -2 0 -11 3 -11 16 0 13 10 17 10 24 0
5 -10 9 -10 15 -2 5 9 10 9 21 0 11 -9 15 -8 19 3 4 10 16 13 37 10 24 -4 29
-2 23 9 -7 11 -6 12 6 2 9 -7 20 -9 29 -3 9 5 20 5 28 -2 7 -6 12 -7 11 -2 -4
20 2 24 21 14 14 -8 20 -8 20 0 0 6 5 8 10 5 6 -3 10 0 10 7 0 9 3 9 10 -2 7
-11 10 -11 10 -2 0 7 5 10 10 7 6 -3 10 -2 10 3 0 5 12 7 26 4 16 -3 25 -1 21
5 -4 6 6 9 23 8 17 -1 30 3 30 8 0 6 3 7 7 4 3 -4 13 -1 21 6 13 10 14 9 7 -3
-8 -13 -6 -13 8 -2 9 8 21 11 26 8 5 -4 13 -1 17 5 5 8 3 9 -6 4 -9 -5 -11 -4
-6 4 6 8 12 9 20 2 9 -8 18 -5 32 7 10 10 31 17 46 17 15 -1 25 2 22 7 -5 7
-1 9 32 12 6 1 20 8 30 16 16 13 17 13 10 0 -4 -9 -2 -8 7 2 8 10 17 15 20 11
4 -3 13 -1 20 5 8 7 17 9 20 5 4 -3 9 2 13 11 3 9 13 16 21 16 8 0 11 -5 7
-12 -4 -7 -3 -8 5 -4 6 4 9 12 6 17 -4 5 3 9 14 9 11 0 23 5 26 10 4 6 11 7
17 4 8 -5 9 -1 4 11 -5 14 -4 16 8 6 11 -9 15 -8 19 4 4 8 13 12 22 9 10 -4
15 -2 13 7 -2 7 7 14 20 15 40 3 43 4 39 12 -8 12 17 29 40 27 13 -1 19 3 16
11 -2 6 1 15 8 20 8 5 10 3 5 -7 -5 -8 -2 -8 6 2 7 9 19 14 27 11 8 -3 11 0 8
6 -4 5 0 15 8 22 8 7 15 9 15 5 0 -4 6 -2 13 4 8 6 16 8 20 5 3 -3 8 4 12 15
3 12 11 19 16 16 5 -4 9 -1 9 5 0 6 4 9 8 6 5 -3 14 4 22 14 8 10 17 17 21 15
4 -3 13 3 20 12 12 14 12 16 0 8 -9 -5 -12 -4 -7 3 4 6 14 8 23 5 11 -4 14 -2
9 5 -4 7 3 14 19 18 14 3 24 9 21 11 -7 7 17 32 26 27 4 -2 9 5 13 16 4 11 10
18 14 15 4 -2 17 6 28 18 32 35 61 56 68 49 3 -4 3 1 -1 11 -4 12 -1 17 12 17
9 0 15 3 11 6 -8 8 16 33 26 27 4 -2 7 3 7 12 0 8 7 18 15 21 8 4 15 10 15 16
0 10 25 37 37 41 4 1 7 5 6 9 -2 4 6 10 17 13 10 3 17 12 14 19 -3 7 2 16 11
20 9 3 13 11 10 16 -4 6 -1 9 7 8 7 -2 12 3 11 10 -2 6 4 12 13 12 8 0 12 5 9
10 -3 6 -1 10 4 10 6 0 11 5 11 10 0 6 11 21 25 34 13 13 22 26 19 29 -4 3 0
13 9 21 8 8 18 12 21 8 4 -3 4 1 0 11 -3 10 -1 17 5 17 6 0 11 7 11 16 0 8 5
12 10 9 6 -4 10 -3 9 2 -3 18 1 34 9 29 4 -2 9 5 9 16 1 11 10 29 19 39 9 11
13 19 8 19 -5 0 -1 5 9 11 9 5 17 19 17 29 0 11 5 20 10 20 6 0 10 9 10 20 0
11 7 23 15 26 8 4 12 10 9 15 -3 6 0 17 7 25 7 9 14 23 16 32 1 9 10 22 19 29
10 7 13 13 7 13 -8 0 -8 7 0 24 7 13 16 22 22 18 5 -3 4 1 -3 10 -10 13 -10
17 2 21 9 4 13 15 11 27 -2 11 0 18 6 15 8 -6 12 7 12 47 0 10 4 15 10 11 6
-4 8 4 5 20 -3 15 -1 24 3 21 8 -5 13 10 10 29 0 4 3 7 8 7 6 0 8 9 6 20 -2
11 0 20 5 20 5 0 7 9 5 20 -2 11 0 20 5 20 4 0 7 11 5 25 -1 14 2 28 6 31 5 3
9 14 9 25 0 10 6 19 13 19 7 0 8 3 2 8 -12 9 -16 44 -4 36 5 -3 9 7 9 21 0 15
5 35 10 46 8 13 7 19 0 19 -7 0 -7 6 1 21 6 12 9 30 6 40 -3 11 0 19 6 19 8 0
7 3 -1 9 -11 7 -10 9 3 14 12 5 14 11 6 25 -7 13 -7 22 1 30 9 9 9 12 -1 12
-10 0 -9 6 3 25 14 21 14 24 1 19 -8 -4 -15 -2 -15 4 0 5 7 12 15 16 8 3 13
11 10 18 -8 20 -11 118 -5 118 4 0 4 23 0 50 -4 33 -3 50 4 50 6 0 4 5 -4 10
-9 6 -10 10 -3 10 6 0 11 9 10 19 0 11 -4 19 -7 19 -18 -2 -21 4 -10 17 7 8 9
15 4 15 -5 0 -9 14 -9 30 0 17 5 30 10 30 6 0 3 5 -5 10 -8 5 -11 10 -7 10 4
0 3 9 -3 20 -8 15 -8 20 2 20 9 0 9 3 -2 10 -13 8 -13 10 -1 10 11 0 10 4 -4
13 -14 11 -15 16 -5 22 10 6 9 9 -1 16 -11 7 -11 9 -1 9 10 0 10 4 -2 16 -13
12 -14 20 -5 36 9 16 8 19 -2 13 -9 -6 -11 -3 -6 8 3 10 3 17 -2 17 -4 0 -7
18 -7 39 1 22 -2 38 -5 35 -4 -2 -9 3 -12 10 -3 8 -1 17 6 20 9 3 9 5 0 5 -7
1 -13 12 -13 26 0 14 -4 25 -9 25 -5 0 -7 10 -3 22 3 13 1 19 -5 15 -7 -5 -9
1 -5 15 4 16 2 19 -9 13 -11 -7 -11 -5 1 10 8 10 10 16 4 12 -7 -4 -14 5 -18
23 -3 17 -5 31 -3 33 1 2 -6 16 -17 31 -11 18 -13 25 -5 21 8 -5 6 1 -4 12 -9
11 -14 23 -10 26 3 4 1 7 -5 7 -7 0 -12 10 -12 23 0 12 -7 33 -16 45 -8 12
-12 27 -9 32 3 6 -1 13 -9 16 -9 3 -13 10 -10 15 3 5 0 9 -6 9 -6 0 -8 5 -5
10 3 6 2 10 -4 10 -6 0 -7 7 -4 17 4 11 3 14 -5 9 -11 -6 -17 5 -13 27 0 4 -4
7 -10 7 -6 0 -9 6 -6 14 6 15 -15 39 -26 31 -4 -3 -5 -2 -2 2 3 3 -1 13 -8 21
-10 13 -9 14 3 7 13 -8 13 -6 1 8 -7 9 -17 15 -21 12 -4 -2 -6 7 -4 21 2 18
-2 24 -11 20 -9 -3 -12 1 -10 15 2 11 0 17 -4 14 -8 -5 -23 19 -25 40 -1 6 -9
9 -17 9 -9 -1 -16 4 -16 10 1 37 -4 48 -19 42 -9 -3 -12 -2 -9 5 4 6 -1 17
-11 25 -11 9 -13 13 -4 9 10 -4 9 -2 -2 8 -10 8 -18 20 -18 26 0 7 -5 9 -12 5
-7 -5 -9 0 -6 14 4 15 2 19 -8 15 -8 -3 -14 1 -14 9 0 7 -11 22 -25 32 -14 11
-23 26 -21 33 3 8 2 12 -2 9 -10 -6 -24 4 -39 29 -6 11 -16 19 -22 17 -6 -1
-11 5 -11 13 0 16 -39 65 -52 65 -5 0 -27 20 -50 45 -24 26 -48 43 -56 40 -7
-2 -10 0 -7 5 3 6 1 10 -4 10 -6 0 -11 6 -11 13 0 8 -10 22 -22 33 -22 19 -23
19 -8 -1 12 -17 10 -16 -11 3 -14 12 -29 19 -33 15 -4 -5 -6 -3 -4 2 2 6 -7
20 -20 33 -13 13 -22 17 -23 10 0 -7 -5 -3 -11 10 -6 12 -17 22 -25 22 -7 0
-13 5 -13 10 0 6 -5 10 -11 10 -7 0 -18 8 -26 18 -10 11 -12 12 -8 2 4 -10 2
-9 -8 3 -8 9 -19 17 -26 17 -6 0 -11 5 -11 12 0 6 -3 9 -6 5 -3 -3 -17 5 -31
19 -26 26 -39 32 -27 12 5 -8 0 -7 -11 2 -11 8 -26 20 -33 25 -7 6 -19 16 -27
23 -12 11 -15 11 -15 0 0 -8 -3 -9 -8 -3 -12 16 -47 41 -38 28 5 -9 2 -11 -8
-7 -9 3 -13 10 -10 15 3 5 -2 9 -11 9 -10 0 -13 5 -9 13 5 8 2 8 -9 -2 -11 -9
-17 -10 -17 -2 0 6 -7 11 -16 11 -8 0 -12 5 -8 11 4 7 0 9 -14 5 -13 -4 -22
-1 -26 9 -3 8 -17 15 -31 15 -14 0 -25 5 -25 10 0 6 -14 10 -32 10 -17 0 -28
3 -25 7 13 12 -37 30 -57 20 -13 -6 -16 -6 -12 2 4 7 -1 11 -13 11 -12 0 -21
5 -21 11 0 6 -9 9 -20 6 -11 -3 -20 0 -20 6 0 6 -3 7 -7 4 -3 -4 -17 0 -30 8
-13 9 -23 11 -23 6 0 -6 -7 -8 -15 -5 -8 4 -12 11 -8 18 4 6 -2 4 -12 -4 -15
-12 -17 -12 -10 -1 6 11 2 13 -18 9 -16 -3 -24 -1 -20 5 4 6 -2 8 -15 5 -12
-4 -22 -2 -22 3 0 4 -7 5 -17 2 -11 -5 -14 -3 -8 6 6 10 3 11 -13 2 -16 -8
-24 -8 -35 4 -8 8 -17 11 -20 8 -3 -3 -20 -1 -36 5 -22 8 -31 8 -31 0 0 -7 -4
-7 -13 1 -8 6 -17 8 -20 4 -4 -3 -7 -1 -7 6 0 9 -5 9 -20 1 -12 -7 -20 -7 -20
-1 0 5 -9 8 -20 6 -11 -2 -20 2 -20 8 0 7 -4 6 -10 -3 -5 -8 -10 -10 -10 -5 0
6 -9 11 -20 11 -11 0 -20 -3 -20 -7 0 -4 -9 -5 -20 -2 -11 3 -20 10 -20 15 0
6 -6 6 -14 -1 -10 -8 -16 -9 -21 -1 -4 6 -12 7 -23 1 -11 -6 -24 -6 -35 0 -12
7 -17 6 -17 -2 0 -8 -4 -8 -15 1 -11 9 -15 9 -15 1 0 -7 -5 -9 -12 -4 -17 10
-67 11 -94 1 -12 -3 -26 -2 -33 5 -6 6 -12 7 -12 2z m196 -1865 c-6 -9 11 -13
58 -13 9 0 17 -3 17 -6 0 -4 12 -8 28 -9 15 -1 29 -7 30 -12 2 -6 12 -10 23
-10 10 0 19 -5 19 -11 0 -5 5 -7 10 -4 6 3 10 1 10 -5 0 -6 4 -9 8 -6 5 3 14
-4 22 -14 8 -10 17 -17 22 -14 4 3 8 0 8 -7 0 -7 3 -10 6 -6 6 6 34 -16 34
-28 0 -3 12 -19 28 -35 57 -61 68 -76 64 -88 -2 -7 0 -12 5 -12 14 0 45 -94
45 -132 -1 -10 3 -18 7 -18 5 0 7 -19 6 -42 -1 -24 2 -48 7 -55 5 -7 5 -14 -2
-18 -6 -3 -8 -11 -4 -16 3 -5 1 -15 -4 -22 -5 -7 -8 -20 -7 -29 2 -10 -1 -18
-6 -18 -6 0 -8 -4 -5 -9 4 -5 1 -22 -6 -38 -13 -33 -18 -48 -18 -58 0 -3 -9
-14 -20 -25 -12 -12 -18 -26 -14 -32 4 -6 3 -8 -3 -5 -6 4 -14 -4 -17 -18 -4
-14 -11 -23 -16 -20 -6 3 -15 -5 -21 -19 -7 -14 -16 -23 -21 -20 -4 3 -12 -5
-17 -18 -6 -13 -10 -18 -11 -13 0 6 -3 6 -8 -1 -10 -14 -85 -59 -94 -56 -5 1
-8 -3 -8 -8 0 -6 -8 -10 -17 -8 -10 2 -17 -2 -16 -9 2 -7 -7 -10 -22 -7 -14 2
-25 1 -25 -4 0 -5 -12 -9 -27 -9 -37 0 -56 -6 -65 -18 -5 -6 -8 -6 -8 1 0 7
-19 11 -51 10 -27 -2 -52 1 -55 6 -3 5 -10 6 -15 3 -5 -4 -15 -3 -21 2 -7 4
-17 8 -23 8 -30 2 -74 18 -70 26 4 5 -1 6 -9 3 -9 -3 -16 -1 -16 6 0 6 -4 8
-10 5 -5 -3 -10 -2 -10 4 0 5 -9 13 -20 16 -11 4 -17 11 -14 17 4 6 2 8 -4 5
-15 -10 -42 3 -42 20 0 8 -4 12 -8 9 -5 -3 -15 6 -23 20 -7 14 -21 30 -31 35
-10 5 -18 16 -18 24 0 8 -4 15 -10 15 -5 0 -10 9 -10 20 0 11 -7 20 -15 20 -8
0 -16 7 -16 15 -2 23 -4 28 -17 51 -6 12 -9 24 -5 27 3 4 1 12 -4 19 -6 7 -9
21 -8 31 2 9 0 17 -4 17 -9 0 -8 132 2 147 4 6 3 15 -3 18 -8 5 -8 11 0 20 7
8 13 26 15 41 1 14 9 30 16 35 8 5 11 9 6 9 -4 0 -1 14 8 30 9 17 12 30 8 30
-5 0 0 5 10 11 9 5 17 16 17 23 0 8 7 16 15 20 8 3 15 13 15 21 0 9 4 14 9 10
5 -3 12 4 16 15 4 11 10 18 14 16 4 -3 18 8 31 25 14 16 29 29 33 29 5 0 21 9
36 19 15 11 39 23 54 26 15 4 27 11 27 16 0 5 6 6 14 3 8 -3 17 -1 20 4 3 6
16 8 28 4 15 -4 19 -2 13 7 -6 10 -3 11 14 2 12 -7 21 -8 21 -2 0 5 23 8 50 7
28 -2 53 1 56 6 3 4 7 8 10 8 3 0 2 -4 -1 -10z"/>
</g>
</svg>
