<?xml version="1.0" standalone="no"?>
<!DOCTYPE svg PUBLIC "-//W3C//DTD SVG 1.1//EN" "http://www.w3.org/Graphics/SVG/1.1/DTD/svg11.dtd" >
<svg xmlns="http://www.w3.org/2000/svg" xmlns:xlink="http://www.w3.org/1999/xlink" version="1.1">
<metadata>
Created by FontForge 20170812 at Thu Apr 16 19:13:46 2015
 By www-data
2015 Iconian Fonts - www.iconian.com
</metadata>
<defs>
<font id="GeminaExpanded" horiz-adv-x="1092" >
  <font-face 
    font-family="Gemina Expanded"
    font-weight="400"
    font-stretch="expanded"
    units-per-em="1000"
    panose-1="0 0 0 0 0 0 0 0 0 0"
    ascent="800"
    descent="-200"
    x-height="663"
    cap-height="663"
    bbox="-155 -170 1956 910"
    underline-thickness="50"
    underline-position="-125"
    unicode-range="U+0020-2122"
  />
<missing-glyph horiz-adv-x="500" 
 />
    <glyph glyph-name=".notdef" horiz-adv-x="500" 
 />
    <glyph glyph-name=".null" horiz-adv-x="0" 
 />
    <glyph glyph-name="nonmarkingreturn" horiz-adv-x="500" 
 />
    <glyph glyph-name="space" unicode=" " horiz-adv-x="473" 
 />
    <glyph glyph-name="space" unicode="&#xa0;" horiz-adv-x="473" 
 />
    <glyph glyph-name="FL0021h" unicode="!" horiz-adv-x="388" 
d="M343 183v-183h-297v183h297zM343 663v-423h-298v423h298z" />
    <glyph glyph-name="FL0022h" unicode="&#x22;" horiz-adv-x="729" 
d="M684 480l-166 -169h-130v353h296v-184zM340 480l-165 -169h-130v353h295v-184z" />
    <glyph glyph-name="FL0023h" unicode="#" horiz-adv-x="1180" 
d="M628 663v-124h-79v124h-279v-124h-225v-184h225v-58h-225v-184h225v-113h279v113h79v-113h280v113h227v184h-227v58h227v184h-227v124h-280zM549 355h79v-58h-79v58z" />
    <glyph glyph-name="FL0024h" unicode="$" 
d="M402 749v-86h-141q-48 0 -88 -20t-68.5 -50.5t-44 -68.5t-15.5 -74q0 -35 16.5 -72t45.5 -68t68 -51t84 -20h143v-56h-335v-183h335v-90h279v90h161q45 0 82.5 19.5t64.5 49.5t42.5 66t15.5 69q0 34 -16 73t-45 72t-68.5 55t-87.5 22h-149v54h343v183h-343v86h-279z
M402 480v-54h-51q-10 0 -12.5 9t-2.5 17q2 17 6 22.5t21 5.5h39zM715 183h-34v56h27q10 0 20.5 -11t10.5 -19q0 -5 -7 -15.5t-17 -10.5z" />
    <glyph glyph-name="FL0025h" unicode="%" horiz-adv-x="1644" 
d="M1222 663h-328l-476 -663h329zM344 509h42q17 0 18 -7.5t4 -23.5v-60q0 -7 -3.5 -12t-17.5 -5h-42q-17 0 -19 6.5t-2 14.5v56q2 16 2.5 23.5t17.5 7.5zM45 472v-44q0 -32 15 -65.5t41.5 -61.5t63.5 -45.5t82 -17.5h228q45 0 82 17.5t63 45.5t40 61.5t14 65.5v44
q0 33 -14.5 67t-40.5 61.5t-63 45.5t-82 18h-228q-45 0 -82 -18t-63.5 -45.5t-41 -61.5t-14.5 -67zM1269 271h42q17 0 18 -7.5t4 -23.5v-60q0 -7 -3.5 -12t-17.5 -5h-42q-17 0 -19 6.5t-2 14.5v56q2 16 2.5 23.5t17.5 7.5zM970 234v-44q0 -32 15 -65.5t41.5 -61.5
t63.5 -45.5t82 -17.5h228q45 0 82 17.5t63 45.5t40 61.5t14 65.5v44q0 33 -14.5 67t-40.5 61.5t-63 45.5t-82 18h-228q-45 0 -82 -18t-63.5 -45.5t-41 -61.5t-14.5 -67z" />
    <glyph glyph-name="FL00C5h" unicode="&#x26;" horiz-adv-x="1089" 
d="M915 0v238h129v184h-575q-30 16 -30 29q0 10 10 18t21 8h394v186h-514q-47 0 -83.5 -13.5t-61 -36t-37 -52t-12.5 -62.5q0 -35 6 -60.5t34 -51.5q-40 -5 -68.5 -28t-47 -52.5t-27 -58.5t-8.5 -46q0 -33 15 -68.5t42 -65.5t65 -49t85 -19h663zM361 239h333v-53h-331
q-11 1 -18.5 8.5t-7.5 17.5q0 5 8.5 13.5t15.5 13.5z" />
    <glyph glyph-name="FL0027h" unicode="'" horiz-adv-x="386" 
d="M340 480l-165 -169h-130v353h295v-184z" />
    <glyph glyph-name="FL0028h" unicode="(" horiz-adv-x="699" 
d="M45 121q0 -36 15.5 -73.5t44 -68t68.5 -50.5t88 -20h393v183h-291q-17 0 -19 7.5t-2 15.5v422q2 16 3 23.5t18 7.5h291v183h-393q-48 0 -88 -20t-68.5 -50.5t-44 -68.5t-15.5 -74v-417z" />
    <glyph glyph-name="FL0029h" unicode=")" horiz-adv-x="699" 
d="M654 119q0 -36 -15.5 -73.5t-44 -68t-68.5 -50.5t-88 -20h-393v183h291q17 0 19 7.5t2 15.5v422q-2 16 -3.5 23.5t-17.5 7.5h-291v183h393q48 0 88 -20t68.5 -50.5t44 -68.5t15.5 -74v-417z" />
    <glyph glyph-name="FL002Ah" unicode="*" horiz-adv-x="418" 
d="M373 539v53q0 8 -10 8h-50l36 29q1 2 2 3.5t1 2.5q0 2 -1 3t-2 3l-47 38q-6 1 -7.5 1.5t1.5 0.5l-1.5 -0.5t-5.5 -1.5l-35 -31v44q0 7 -11 7h-65q-10 0 -10 -7v-44l-38 31q-2 2 -6 2l-1.5 -0.5t-5.5 -1.5l-45 -38q-4 -3 -4 -6t4 -6l37 -29h-54q-10 0 -10 -8v-53
q0 -8 10 -8h53l-36 -30q-4 -4 -4 -7q0 -2 4 -5l45 -38q4 -1 5.5 -1.5l1.5 -0.5q4 0 6 2l38 29v-42q0 -7 10 -7h65q11 0 11 7v42l35 -29q4 -1 5.5 -1.5l1.5 -0.5q-3 0 -1.5 0.5t7.5 1.5l47 38q1 2 2 2.5t1 2.5t-1 3.5t-2 3.5l-36 30h50q10 0 10 8z" />
    <glyph glyph-name="FL002Bh" unicode="+" horiz-adv-x="821" 
d="M301 127h221v111h254v184h-254v112h-221v-112h-256v-183h256v-112z" />
    <glyph glyph-name="FL002Ch" unicode="," horiz-adv-x="386" 
d="M340 0v184h-295v-353h130z" />
    <glyph glyph-name="FL002Dh" unicode="-" horiz-adv-x="579" 
d="M534 239h-489v184h489v-184z" />
    <glyph glyph-name="FL002Eh" unicode="." horiz-adv-x="387" 
d="M342 183h-297v-183h297v183z" />
    <glyph glyph-name="FL002Fh" unicode="/" horiz-adv-x="846" 
d="M825 663h-329l-475 -663h329z" />
    <glyph glyph-name="FL0030h" unicode="0" 
d="M45 212v238q0 36 15.5 74t44 68.5t68.5 50.5t88 20h571q49 0 89 -20t68 -50.5t43 -68.5t15 -74v-238q0 -36 -15 -73.5t-43 -68t-68 -50.5t-89 -20h-571q-48 0 -88 20t-68.5 50.5t-44 68t-15.5 73.5zM730 480h-367q-17 0 -18 -7.5t-3 -23.5v-245q0 -8 2 -14.5t19 -6.5h367
q17 0 19.5 6.5t2.5 14.5v245q-3 16 -4 23.5t-18 7.5zM698 421v-183h-296v183h296z" />
    <glyph glyph-name="FL0031h" unicode="1" horiz-adv-x="930" 
d="M45 183h281v297h-281v183h561v-480h279v-183h-840v183z" />
    <glyph glyph-name="FL0032h" unicode="2" 
d="M67 480v183h775q45 0 82.5 -19.5t64.5 -49.5t42.5 -66t15.5 -69q0 -34 -16 -73t-45 -72t-68.5 -55t-87.5 -22h-479q-10 0 -11.5 -7.5t-1.5 -15.5v-31h686v-183h-979v213q0 34 16.5 71.5t45.5 68.5t68 51t84 20h449q10 0 20.5 11t10.5 19q0 5 -7 15.5t-17 10.5h-648z" />
    <glyph glyph-name="FL0033h" unicode="3" 
d="M733 239q6 -5 15 -13.5t9 -13.5q0 -10 -7.5 -17.5t-19.5 -7.5h-685v-187h797q47 0 85 20.5t64.5 52t41 69t14.5 70.5q0 35 -11 65t-44 54q28 27 41.5 55.5t13.5 63.5q0 33 -14.5 70.5t-41 69t-64.5 52.5t-85 21h-794v-187h682q12 0 22 -8t10 -18q0 -4 -7.5 -12t-21.5 -16
h-401v-180h1v-3h400z" />
    <glyph glyph-name="FL0034h" unicode="4" horiz-adv-x="1094" 
d="M1048 153h-141v-153h-293v153h-569v184l367 325h495v-325h141v-184zM446 335h167v154z" />
    <glyph glyph-name="FL0035h" unicode="5" 
d="M67 183v-183h775q45 0 82.5 19.5t64.5 49.5t42.5 66t15.5 69q0 34 -16 73t-45 72t-68.5 55t-87.5 22h-479q-10 0 -11.5 7.5t-1.5 15.5v31h686v183h-979v-213q0 -35 16.5 -72t45.5 -68t68 -51t84 -20h449q10 0 20.5 -11t10.5 -19q0 -5 -7 -15.5t-17 -10.5h-648z" />
    <glyph glyph-name="FL0036h" unicode="6" 
d="M45 212q0 -36 15.5 -73.5t44 -68t68.5 -50.5t88 -20h581q45 0 82.5 19.5t64.5 49.5t42.5 66t15.5 69q0 34 -16 73t-45 72t-68.5 55t-87.5 22h-479q-8 0 -9 4v27q0 8 3 15.5t18 7.5h661v183h-763q-48 0 -88 -20t-68.5 -50.5t-44 -68.5t-15.5 -74v-238zM715 183h-355
q-14 1 -16 9t-2 16v31h366q10 0 20.5 -11t10.5 -19q0 -5 -7 -15.5t-17 -10.5z" />
    <glyph glyph-name="FL0037h" unicode="7" 
d="M69 480v183h1002l-660 -663h-366l469 480h-445z" />
    <glyph glyph-name="FL0038h" unicode="8" 
d="M44 450q0 -35 13.5 -63.5t41.5 -55.5q-33 -24 -44 -54t-11 -65q0 -33 14.5 -70.5t41 -69t64.5 -52t85 -20.5h593q47 0 85 20.5t64.5 52t41 69t14.5 70.5q0 35 -11 65t-44 54q28 27 41.5 55.5t13.5 63.5q0 33 -14.5 70.5t-41 69t-64.5 52.5t-85 21h-593q-47 0 -85 -21
t-64.5 -52.5t-41 -69t-14.5 -70.5zM330 450q0 10 9.5 18t21.5 8h369q12 0 22 -8t10 -18q0 -4 -7.5 -12t-21.5 -16h-375q-14 8 -21 16t-7 12zM733 239q6 -5 15 -13.5t9 -13.5q0 -10 -7.5 -17.5t-19.5 -7.5h-369q-12 0 -19.5 7.5t-7.5 17.5q0 5 9 13.5t15 13.5h375z" />
    <glyph glyph-name="FL0039h" unicode="9" 
d="M1046 450q0 36 -15.5 73.5t-44 68t-68 50.5t-88.5 20h-581q-45 0 -82.5 -19.5t-64.5 -49.5t-42.5 -66t-15.5 -69q0 -34 16 -73t45 -72t68.5 -55t87.5 -22h479q7 0 10 -4v-27q0 -8 -3.5 -15.5t-18.5 -7.5h-661v-182h763q49 0 88.5 19.5t68 50.5t44 68.5t15.5 73.5v238z
M376 479h356q14 -1 16 -9t2 -16v-31h-366q-11 0 -21.5 11t-10.5 19q0 5 7 15.5t17 10.5z" />
    <glyph glyph-name="FL003Ah" unicode=":" horiz-adv-x="387" 
d="M342 183h-297v-183h297v183zM342 479h-297v-183h297v183z" />
    <glyph glyph-name="FL003Bh" unicode=";" horiz-adv-x="387" 
d="M342 296h-297v183h297v-183zM340 0l-165 -169h-130v353h295v-184z" />
    <glyph glyph-name="FL003Ch" unicode="&#x3c;" horiz-adv-x="797" 
d="M776 663l-337 -332l337 -331h-419l-336 331l336 332h419z" />
    <glyph glyph-name="FL003Dh" unicode="=" horiz-adv-x="821" 
d="M776 355v184h-731v-184h731zM776 113v184h-731v-184h731z" />
    <glyph glyph-name="FL003Eh" unicode="&#x3e;" horiz-adv-x="797" 
d="M20 663l337 -332l-337 -331h419l336 331l-336 332h-419z" />
    <glyph glyph-name="FL003Fh" unicode="?" horiz-adv-x="1071" 
d="M180 183v-183h296v183h-296zM45 479h648q10 0 17 -10.5t7 -15.5q0 -8 -10.5 -19t-20.5 -11h-508v-187h630q48 0 88 22t69 55t45 72t16 73q0 33 -15.5 69t-43 66t-65 49.5t-82.5 19.5h-775v-183z" />
    <glyph glyph-name="FL0040h" unicode="@" horiz-adv-x="1385" 
d="M374 349q0 33 14.5 67t40.5 61.5t63 45.5t82 18h228q45 0 82 -18t63.5 -45.5t41 -61.5t14.5 -67v-52h19q17 1 19.5 6.5t2.5 13.5v219q-3 15 -4 22.5t-16 7.5h-661q-17 0 -18 -7.5t-3 -23.5v-426q0 -8 2 -13.5t19 -6.5h376v-182h-478q-48 0 -88 20t-68.5 50.5t-44 68
t-15.5 73.5v417q0 36 15.5 74t44 69t68.5 51t88 20h863q49 0 88.5 -20t68 -50.5t44 -68.5t15.5 -74v-210q0 -36 -15.5 -73.5t-44 -68t-68 -50.5t-88.5 -20h-548q-45 0 -82 17.5t-63.5 45.5t-41.5 61.5t-15 65.5v44zM673 386q-17 0 -17.5 -7.5t-3.5 -23.5v-58q0 -8 2.5 -13.5
t19.5 -5.5h42q14 0 17 5t3 12v60q-2 16 -3 23.5t-18 7.5h-42z" />
    <glyph glyph-name="A" unicode="A" horiz-adv-x="1282" 
d="M1369 -145l-587 808h-272l-489 -663h679l113 153h10l229 -298h317zM799 187h-309l149 204l2 0.5t3 0.5q3 0 4.5 -0.5l1.5 -0.5q7 -1 10 -9z" />
    <glyph glyph-name="FL0042h" unicode="B" horiz-adv-x="1154" 
d="M804 663h-759v-663h857q46 0 84 19t65 49t42 65.5t15 68.5q0 17 -8.5 46t-27 58.5t-47 52.5t-68.5 28q28 27 34.5 51.5t6.5 60.5q0 33 -12.5 62.5t-37 52t-61 36t-83.5 13.5zM793 239q10 -2 17 -12t7 -15q0 -10 -7.5 -17.5t-19.5 -7.5h-464v290h358q11 0 21 -8t10 -18
q0 -13 -30 -29h-293v-180h1v-3h400z" />
    <glyph glyph-name="FL0043h" unicode="C" 
d="M1047 663h-786q-48 0 -88 -20t-68.5 -50.5t-44 -68.5t-15.5 -74v-238q0 -36 15.5 -73.5t44 -68t68.5 -50.5t88 -20h786v183h-684q-17 0 -18 7.5t-3 23.5v245q0 8 2 14.5t19 6.5h390v-89h294v272z" />
    <glyph glyph-name="FL0044h" unicode="D" 
d="M45 0v423h295v-240h390q17 0 19.5 5.5t2.5 13.5v247q-3 16 -4 23.5t-18 7.5h-685v183h787q49 0 89 -20t68 -50.5t43 -68.5t15 -74v-238q0 -36 -15 -73.5t-43 -68t-68 -50.5t-89 -20h-787z" />
    <glyph glyph-name="FL0045h" unicode="E" 
d="M830 239h-490v-56h707v-183h-1002v450q0 36 15.5 74t44 68.5t68.5 50.5t88 20h786v-183h-684q-17 0 -18 -7.5t-3 -23.5v-26h488v-184z" />
    <glyph glyph-name="FL0046h" unicode="F" 
d="M830 239h-490v-239h-295v450q0 36 15.5 74t44 68.5t68.5 50.5t88 20h786v-183h-684q-17 0 -19 -6.5t-2 -21.5v-29h488v-184z" />
    <glyph glyph-name="FL0047h" unicode="G" 
d="M1047 0v426h-577v-182h283v-61h-390q-17 0 -19 6.5t-2 14.5v245q2 16 3 23.5t18 7.5h684v183h-786q-48 0 -88 -20t-68.5 -50.5t-44 -68.5t-15.5 -74v-238q0 -36 15.5 -73.5t44 -68t68.5 -50.5t88 -20h786z" />
    <glyph glyph-name="FL0048h" unicode="H" horiz-adv-x="1151" 
d="M826 663h280v-663h-280v239h-501v-239h-280v663h280v-237h501v237z" />
    <glyph glyph-name="FL0049h" unicode="I" horiz-adv-x="930" 
d="M45 183h281v297h-281v183h840v-183h-279v-297h279v-183h-840v183z" />
    <glyph glyph-name="FL004Ah" unicode="J" horiz-adv-x="1094" 
d="M1047 212v451h-576v-182h282v-274q-1 -8 -4 -16t-19 -8h-685v-183h787q49 0 89 20t68 50.5t43 68t15 73.5z" />
    <glyph glyph-name="FL004Bh" unicode="K" horiz-adv-x="1064" 
d="M1042 663l-398 -332l398 -331h-362l-355 294v-439h-280v808h280v-295l355 295h362z" />
    <glyph glyph-name="FL004Ch" unicode="L" 
d="M45 212q0 -36 15.5 -73.5t44 -68t68.5 -50.5t88 -20h786v183h-684q-15 0 -18 8t-5 16v456h-295v-451z" />
    <glyph glyph-name="FL004Dh" unicode="M" horiz-adv-x="1328" 
d="M807 0l195 273v-417h280v807h-330l-276 -399l-300 399h-331v-663h280v283l209 -283h273z" />
    <glyph glyph-name="FL004Eh" unicode="N" horiz-adv-x="1182" 
d="M1137 663h-279v-388l-394 388h-419v-663h280v388l393 -388h419v663z" />
    <glyph glyph-name="FL004Fh" unicode="O" horiz-adv-x="1150" 
d="M45 213q0 -36 15.5 -73.5t44 -68.5t68.5 -51t88 -20h628q48 0 88 20t68.5 50.5t44 68.5t15.5 74v237q0 36 -15.5 73.5t-44 68.5t-68.5 51t-88 20h-628q-48 0 -88 -20t-68.5 -50.5t-44 -68.5t-15.5 -74v-237zM787 479q17 0 19 -6.5t2 -21.5v-243q0 -8 -2.5 -16t-16.5 -8
h-426q-17 0 -19 5.5t-2 13.5v246q0 13 2.5 21.5t16.5 8.5h426z" />
    <glyph glyph-name="FL0050h" unicode="P" horiz-adv-x="1150" 
d="M45 663v-663h281v476h464q6 0 14.5 -4.5t17 -11.5t14 -14t5.5 -12v-65q0 -4 -5 -12t-11.5 -16.5t-14.5 -14.5t-14 -6h-408v-191h460q54 6 101 19.5t81.5 37t54.5 57.5t20 81v126q0 33 -14 70.5t-40.5 69t-64 52.5t-84.5 21h-857z" />
    <glyph glyph-name="FL0051h" unicode="Q" horiz-adv-x="1094" 
d="M45 450q0 36 15.5 74t44 68.5t68.5 50.5t88 20h571q49 0 89 -20t68 -50.5t43 -68.5t15 -74v-238q0 -29 -9 -58.5t-28 -56.5l238 -173h-312l-110 76h-565q-48 0 -88 20t-68.5 50.5t-44 68t-15.5 73.5v238zM679 326l73 -52v175q-3 16 -4 23.5t-18 7.5h-367q-17 0 -18 -7.5
t-3 -23.5v-241q0 -8 2 -16.5t19 -8.5h199l-202 143h319z" />
    <glyph glyph-name="R" unicode="R" horiz-adv-x="1158" 
d="M45 663v-410h281v223h464q12 0 22 -8t10 -18q0 -8 -4 -18.5t-18 -10.5h-408v-163l341 -258h404l-284 225l-1 4q55 6 102 24t81 46.5t53 66.5t19 84q0 33 -14.5 70.5t-41 69t-64.5 52.5t-85 21h-857z" />
    <glyph glyph-name="FLE003h" unicode="S" horiz-adv-x="1094" 
d="M45 183v-183h798q45 0 82.5 19.5t64.5 49.5t42.5 66t15.5 69q0 34 -16 73t-45 72t-68.5 55t-87.5 22h-479q-10 0 -12.5 9t-2.5 17q2 17 6 22.5t21 5.5h662v183h-764q-48 0 -88 -20t-68.5 -50.5t-44 -68.5t-15.5 -74q0 -35 16.5 -72t45.5 -68t68 -51t84 -20h449
q10 0 20.5 -11t10.5 -19q0 -5 -7 -15.5t-17 -10.5h-671z" />
    <glyph glyph-name="FL0054h" unicode="T" 
d="M283 212q0 -36 15 -73.5t43 -68t67.5 -50.5t89.5 -20h346v183h-244q-16 0 -19 8t-4 16v273h470v183h-1002v-183h238v-268z" />
    <glyph glyph-name="FL0055h" unicode="U" 
d="M752 202v461h295v-451q0 -36 -15 -73.5t-43 -68t-68 -50.5t-89 -20h-571q-48 0 -88 20t-68.5 50.5t-44 68t-15.5 73.5v451h297v-461q0 -8 2 -13.5t19 -5.5h367q17 0 19.5 5.5t2.5 13.5z" />
    <glyph glyph-name="FL0056h" unicode="V" horiz-adv-x="1278" 
d="M1257 663h-317l-117 -153h-10l-113 153h-679l489 -663h272zM799 476l-139 -196q-6 -6 -10 -8l-1.5 -0.5t-4.5 -0.5q-1 0 -3 0.5l-2 0.5l-149 204h309z" />
    <glyph glyph-name="FL0057h" unicode="W" horiz-adv-x="1328" 
d="M796 662h-252l-219 -294v294h-280v-663h317l314 391l291 -391h315v663h-279v-284z" />
    <glyph glyph-name="FL0078h" unicode="X" horiz-adv-x="1134" 
d="M1113 663h-397l-149 -142l-149 142h-397l347 -332l-347 -331h397l149 142l149 -142h397l-348 331z" />
    <glyph glyph-name="FL0059h" unicode="Y" 
d="M1046 663h-298v-240h-364q-11 0 -20.5 10.5t-9.5 18.5v211h-310v-205q0 -34 16 -73t45 -72t68.5 -55t87.5 -22h479q7 0 10 -4v-27q0 -8 -3.5 -15.5t-18.5 -7.5h-661v-182h763q49 0 88.5 19.5t68 50.5t44 68.5t15.5 73.5v451z" />
    <glyph glyph-name="FL007Bh" unicode="Z" horiz-adv-x="1186" 
d="M45 0l492 479h-489v184h1089l-492 -480h496v-183h-1096z" />
    <glyph glyph-name="FL005Bh" unicode="[" horiz-adv-x="699" 
d="M44 -92h610v184h-311v476h311v183h-610v-843z" />
    <glyph glyph-name="FL005Dh" unicode="\" horiz-adv-x="846" 
d="M21 663l475 -663h329l-475 663h-329z" />
    <glyph glyph-name="FL005Eh" unicode="]" horiz-adv-x="699" 
d="M654 -92h-610v184h311v476h-311v183h610v-843z" />
    <glyph glyph-name="FL0060h" unicode="^" horiz-adv-x="1278" 
d="M21 -1h329l276 399l300 -399h331l-488 663h-273z" />
    <glyph glyph-name="FL005Fh" unicode="_" horiz-adv-x="832" 
d="M787 182v-182h-742v182h742z" />
    <glyph glyph-name="FL0D53h" unicode="`" horiz-adv-x="436" 
d="M304 661l111 -183h-287l-107 183h283z" />
    <glyph glyph-name="FL0061h" unicode="a" horiz-adv-x="1278" 
d="M21 0h318l117 153l122 -153h679l-487 663h-274zM481 187l149 204l158 -204h-307z" />
    <glyph glyph-name="FL0062h" unicode="b" horiz-adv-x="1152" 
d="M902 663h-857v-663h857q47 0 85 20.5t64.5 52t41 69t14.5 70.5q0 35 -11 65t-44 54q28 27 41.5 55.5t13.5 63.5q0 33 -14.5 70.5t-41 69t-64.5 52.5t-85 21zM793 239q10 -2 17 -12t7 -15q0 -10 -7.5 -17.5t-19.5 -7.5h-464v289h464q12 0 22 -8t10 -18q0 -4 -7.5 -12
t-21.5 -16h-401v-180h1v-3h400z" />
    <glyph glyph-name="FL0063h" unicode="c" 
d="M45 212v238q0 36 15.5 74t44 68.5t68.5 50.5t88 20h786v-183h-684q-17 0 -18 -7.5t-3 -23.5v-247q0 -8 2 -13.5t19 -5.5h684v-183h-786q-48 0 -88 20t-68.5 50.5t-44 68t-15.5 73.5z" />
    <glyph glyph-name="FL0064h" unicode="d" 
d="M45 663h787q49 0 89 -20t68 -50.5t43 -68.5t15 -74v-238q0 -36 -15 -73.5t-43 -68t-68 -50.5t-89 -20h-787v663zM325 480v-297h405q17 0 19.5 5.5t2.5 13.5v247q-3 16 -4 23.5t-18 7.5h-405z" />
    <glyph glyph-name="FL0065h" unicode="e" 
d="M830 239v184h-488v26q2 16 3 23.5t18 7.5h684v183h-786q-48 0 -88 -20t-68.5 -50.5t-44 -68.5t-15.5 -74v-238q0 -36 15.5 -73.5t44 -68t68.5 -50.5t88 -20h786v183h-684q-17 0 -19 4.5t-2 12.5v39h488z" />
    <glyph glyph-name="FL0066h" unicode="f" 
d="M830 239v184h-488v57h705v183h-1002v-663h295v239h490z" />
    <glyph glyph-name="FL0067h" unicode="g" 
d="M1047 0v426h-577v-182h283v-61h-390q-17 0 -19 7.5t-2 15.5v243q2 16 3 23.5t18 7.5h684v183h-786q-48 0 -88 -20t-68.5 -50.5t-44 -68.5t-15.5 -74v-238q0 -36 15.5 -73.5t44 -68t68.5 -50.5t88 -20h786z" />
    <glyph glyph-name="FL0068h" unicode="h" horiz-adv-x="1088" 
d="M763 663h279v-663h-279v239h-438v-239h-280v663h280v-237h438v237z" />
    <glyph glyph-name="FL0069h" unicode="i" horiz-adv-x="389" 
d="M54 663v-663h284v663h-284z" />
    <glyph glyph-name="FL006Ah" unicode="j" 
d="M1047 212v451h-294v-456q-1 -8 -4 -16t-19 -8h-685v-183h787q49 0 89 20t68 50.5t43 68t15 73.5z" />
    <glyph glyph-name="FL006Bh" unicode="k" horiz-adv-x="1064" 
d="M1042 663h-362l-355 -295v295h-280v-663h280v294l355 -294h362l-398 331z" />
    <glyph glyph-name="FL006Ch" unicode="l" 
d="M342 663h-297v-663h1002v183h-705v480z" />
    <glyph glyph-name="FL006Dh" unicode="m" horiz-adv-x="1328" 
d="M807 0h-273l-209 283v-283h-280v663h331l300 -399l276 399h330v-663h-279v273z" />
    <glyph glyph-name="FL006Eh" unicode="n" horiz-adv-x="1150" 
d="M1105 663h-280v-388l-392 388h-388v-663h280v388l402 -388h378v663z" />
    <glyph glyph-name="FL006Fh" unicode="o" 
d="M45 212v238q0 36 15.5 74t44 68.5t68.5 50.5t88 20h571q49 0 89 -20t68 -50.5t43 -68.5t15 -74v-238q0 -36 -15 -73.5t-43 -68t-68 -50.5t-89 -20h-571q-48 0 -88 20t-68.5 50.5t-44 68t-15.5 73.5zM730 480h-367q-17 0 -19 -7t-2 -21v-250q0 -8 2 -13.5t19 -5.5h367
q17 0 19.5 5.5t2.5 13.5v250q0 14 -2.5 21t-19.5 7z" />
    <glyph glyph-name="FL0070h" unicode="p" horiz-adv-x="1152" 
d="M45 663v-663h281v481h464q12 0 22 -10.5t10 -20.5q0 -8 -4 -18.5t-18 -10.5h-408v-192h460q55 6 102 24t81 46.5t53 66.5t19 84q0 33 -14.5 70.5t-41 69t-64.5 52.5t-85 21h-857z" />
    <glyph glyph-name="FL0071h" unicode="q" horiz-adv-x="1091" 
d="M45 212q0 -36 15.5 -73.5t44 -68t68.5 -50.5t88 -20h876l-131 93q21 27 31 58.5t10 60.5v238q0 36 -15 74t-43 68.5t-68 50.5t-89 20h-571q-48 0 -88 -20t-68.5 -50.5t-44 -68.5t-15.5 -74v-238zM360 326l202 -143h-199q-17 0 -19 8.5t-2 16.5v241q2 16 3 23.5t18 7.5
h367q17 0 18 -7.5t4 -23.5v-175l-73 52h-319z" />
    <glyph glyph-name="FL0072h" unicode="r" horiz-adv-x="1158" 
d="M45 663h857q47 0 85 -21t64.5 -52.5t41 -69t14.5 -70.5q0 -46 -19 -84t-53 -66.5t-81 -46.5t-102 -24l-4 -8l289 -221h-407l-338 261v160h408q14 0 18 10.5t4 18.5q0 10 -9.5 20.5t-20.5 10.5h-466v-481h-281v663z" />
    <glyph glyph-name="s" unicode="s" 
d="M67 183h648q10 0 17 10.5t7 15.5q0 8 -10.5 19t-20.5 11h-449q-45 0 -84 20t-68 51t-45.5 68t-16.5 72q0 36 15.5 74t44 68.5t68.5 50.5t88 20h763v-183h-661q-17 0 -21 -5.5t-6 -22.5q0 -8 2.5 -17t12.5 -9h479q48 0 87.5 -22t68.5 -55t45 -72t16 -73q0 -33 -15.5 -69
t-42.5 -66t-64.5 -49.5t-82.5 -19.5h-775v183z" />
    <glyph glyph-name="FL0074h" unicode="t" 
d="M45 480v183h1002v-183h-354v-480h-279v480h-369z" />
    <glyph glyph-name="FL0075h" unicode="u" 
d="M752 202v461h295v-451q0 -36 -15 -73.5t-43 -68t-68 -50.5t-89 -20h-571q-48 0 -88 20t-68.5 50.5t-44 68t-15.5 73.5v451h297v-461q0 -8 2 -13.5t19 -5.5h367q17 0 19.5 5.5t2.5 13.5z" />
    <glyph glyph-name="FL0076h" unicode="v" horiz-adv-x="1278" 
d="M1257 663h-329l-276 -399l-300 399h-331l489 -663h272z" />
    <glyph glyph-name="FL007Fh" unicode="w" horiz-adv-x="1488" 
d="M21 663h319l215 -364l53 45l-187 318h285l213 -348l229 349h319l-429 -663h-246l-50 92l-63 -92h-243z" />
    <glyph glyph-name="FL007Dh" unicode="x" horiz-adv-x="1056" 
d="M387 0l142 144l140 -144h366l-324 331l323 332h-365l-140 -145l-142 145h-365l324 -332l-325 -331h366z" />
    <glyph glyph-name="y" unicode="y" horiz-adv-x="1312" 
d="M516 153v-153h276v153l499 510h-361l-276 -272l-267 272h-366z" />
    <glyph glyph-name="FL005Ah" unicode="z" horiz-adv-x="1091" 
d="M45 0v183l559 296h-559v184h1001v-184l-559 -296h559v-183h-1001z" />
    <glyph glyph-name="FL007Ch" unicode="{" 
d="M830 239v184h-488v57h705v183h-1002v-663h1002v183h-707v56h490z" />
    <glyph glyph-name="FL007Eh" unicode="|" horiz-adv-x="370" 
d="M45 749h280v-839h-280v839z" />
    <glyph glyph-name="FL00AFh" unicode="}" horiz-adv-x="1150" 
d="M902 663h-857v-663h281v476h464q6 0 14.5 -4.5t17 -11.5t14 -14t5.5 -12v-65q0 -4 -5 -12t-11.5 -16.5t-14.5 -14.5t-14 -6h-408v-191h155l126 -129h366l-137 136q45 9 83 24t65.5 37.5t43 53.5t15.5 73v126q0 33 -14 70.5t-40.5 69t-64 52.5t-84.5 21z" />
    <glyph glyph-name="FL0083h" unicode="~" horiz-adv-x="760" 
d="M660 237h-345l-42 96l-41 -97h-211l83 186h342l43 -97l40 97h210z" />
    <glyph glyph-name="FL0082h" horiz-adv-x="240" 
 />
    <glyph glyph-name="FL20ACh" unicode="&#x20ac;" horiz-adv-x="1196" 
d="M944 224h-402v-20q0 -8 2.5 -14.5t19.5 -6.5h586v-183h-688q-49 0 -88.5 20t-68 50.5t-44 68t-15.5 73.5v12h-201v93h201v29h-201v92h201v12q0 36 15.5 74t44 68.5t68 50.5t88.5 20h688v-183h-586q-17 0 -18 -7.5t-4 -23.5v-11h402v-92h-402v-29h402v-93z" />
    <glyph glyph-name="FL0080h" unicode="&#x201a;" horiz-adv-x="603" 
d="M45 212v238q0 36 15.5 74t44 68.5t68.5 50.5t88 20h297v-183h-195q-17 0 -18 -7.5t-3 -23.5v-243q0 -8 2 -15.5t19 -7.5h195v-183h-297q-48 0 -88 20t-68.5 50.5t-44 68t-15.5 73.5z" />
    <glyph glyph-name="FL0192h" unicode="&#x192;" horiz-adv-x="1631" 
d="M1586 315l-137 -9q87 -74 87 -98l-1 -2t-2 -6l-139 17l-10 -114l-138 34l-105 -98l-97 48l-213 -80l11 32l-32 32l-266 -40l32 56l-298 9l86 47l-255 42l116 41l-180 72l137 8l-73 73l-11 33l138 -8l20 113q68 -35 105 -35q18 0 25 4l115 96l85 -49l192 73l22 -7l10 -49
l277 32l-22 -57h287l-85 -48l245 -41l12 -16h-12l-107 -24l170 -66zM1378 371l-45 9l-7 -110l30 -4zM1362 222l-29 9l-25 -15l22 -16zM1281 230v142l-32 8l-7 -100l-107 91l3 -142l28 2v70q71 -71 115 -71zM1104 231l-4 107q-12 45 -48 45q-18 0 -25 -4q-68 -71 -77 -142h38
q24 33 48 33q26 0 44 -33zM928 380l-36 -6l-19 -145l46 10zM838 225v141l-33 8l-5 -99l-109 91l3 -144l29 4v69q69 -70 115 -70zM669 325q-17 48 -77 48h-10q1 0 -1.5 -0.5t-8.5 -0.5q-71 -33 -71 -125q13 -24 65 -24q8 0 15 0.5t15 1.5q55 0 73 100zM488 377
q-138 -17 -138 -83q0 -5 0.5 -8.5l1.5 -10.5q18 -63 74 -63q6 0 15 2t23 4l-2 25q-8 -4 -36 -4q-41 0 -41 28q0 32 29 58q29 20 50 20q6 0 10 -0.5t10 -2.5zM331 374l-35 -6l-18 -146l43 11zM1069 301h-61l38 48zM634 305q0 -24 -16 -43q-32 -12 -50 -12q-31 0 -31 35
q0 9 1 10q24 45 56 45q22 0 34 -19q6 -5 6 -16z" />
    <glyph glyph-name="FL0081h" unicode="&#x201e;" horiz-adv-x="603" 
d="M556 212v238q0 36 -15.5 74t-44 68.5t-68 50.5t-88.5 20h-296v-183h194q17 0 18 -7.5t4 -23.5v-243q0 -8 -2.5 -15.5t-19.5 -7.5h-194v-183h296q49 0 88.5 20t68 50.5t44 68t15.5 73.5z" />
    <glyph glyph-name="FL2026h" unicode="&#x2026;" horiz-adv-x="1220" 
d="M1126 183v-183h-296v183h296zM734 183v-183h-296v183h296zM342 183v-183h-297v183h297z" />
    <glyph glyph-name="FL2020h" unicode="&#x2020;" horiz-adv-x="821" 
d="M270 663v-124h-225v-184h225v-355h279v355h227v184h-227v124h-279z" />
    <glyph glyph-name="FL2021h" unicode="&#x2021;" horiz-adv-x="821" 
d="M270 663v-124h-225v-184h225v-58h-225v-184h225v-113h279v113h227v184h-227v58h227v184h-227v124h-279z" />
    <glyph glyph-name="FL02C6h" unicode="&#x2c6;" horiz-adv-x="731" 
d="M132 664l-111 -184h287l56 98l58 -98h288l-110 184h-468z" />
    <glyph glyph-name="FL2030h" unicode="&#x2030;" horiz-adv-x="1191" 
d="M1146 371l-46 9l-7 -110l30 -4zM1129 222l-29 9l-25 -15l23 -16zM1048 230v142l-32 8l-7 -100l-107 91l4 -142l27 2v70q71 -71 115 -71zM871 231l-4 107q-12 45 -48 45q-18 0 -25 -4q-68 -71 -77 -142h39q22 33 48 33q25 0 43 -33zM696 380l-36 -6l-20 -145l46 10z
M606 225v141l-34 8l-5 -99l-109 91l4 -144l28 4v69q69 -70 116 -70zM436 325q-15 48 -76 48h-11q1 0 -1 -0.5t-9 -0.5q-71 -33 -71 -125q13 -24 65 -24q8 0 15 0.5t15 1.5q55 0 73 100zM255 377q-138 -17 -138 -83q0 -5 0.5 -8.5t2.5 -10.5q18 -63 73 -63q6 0 15 2t23 4
l-2 25q-7 -4 -36 -4q-41 0 -41 28q0 31 29 58q29 20 50 20q7 0 10.5 -0.5t10.5 -2.5zM98 374l-35 -6l-18 -146l43 11zM836 301h-61l38 48zM402 305q0 -23 -17 -43q-32 -12 -49 -12q-32 0 -32 35q0 8 2 10q22 45 55 45q22 0 35 -19q6 -6 6 -16z" />
    <glyph glyph-name="FL0160h" unicode="&#x160;" horiz-adv-x="1094" 
d="M260 0h582q45 0 82.5 19.5t64.5 49.5t42.5 66t15.5 69q0 34 -16 73t-45 72t-68.5 55t-87.5 22h-479q-19 18 -19 23q0 2 1 3q0 8 6.5 18t23.5 10h685v183h-787q-48 0 -88 -20t-68.5 -50.5t-44 -68.5t-15.5 -74q0 -35 16.5 -72t45.5 -68t68 -51t84 -20h449q10 0 20.5 -11
t10.5 -19q0 -5 -7 -15.5t-17 -10.5h-455v-183zM819 724l115 184h-286l-64 -99l-58 98h-288l111 -183h470z" />
    <glyph glyph-name="FL2039h" unicode="&#x2039;" horiz-adv-x="311" 
d="M45 136l221 -92v239l-118 47l118 48v240l-221 -92v-390z" />
    <glyph glyph-name="FL0152h" unicode="&#x152;" horiz-adv-x="1797" 
d="M1534 423h-487v37q1 11 3.5 15.5t17.5 4.5h684v183h-1491q-48 0 -88 -20t-68.5 -50.5t-44 -68.5t-15.5 -74v-238q0 -36 15.5 -73.5t44 -68t68.5 -50.5t88 -20h1491v183h-684q-17 0 -19.5 6.5t-2.5 14.5v35h488v184zM752 183h-389q-17 0 -18 7.5t-3 23.5v243q0 8 2 15.5
t19 7.5h389v-297z" />
    <glyph glyph-name="FL017Dh" unicode="&#x17d;" horiz-adv-x="1186" 
d="M45 0h1096v183h-491l487 480h-1089v-184h484zM826 723l116 184h-287l-64 -99l-57 98h-288l110 -183h470z" />
    <glyph glyph-name="FL2018h" unicode="&#x2018;" horiz-adv-x="386" 
d="M45 494l166 169h129v-353h-295v184z" />
    <glyph glyph-name="FL2019h" unicode="&#x2019;" horiz-adv-x="386" 
d="M340 480l-165 -169h-130v353h295v-184z" />
    <glyph glyph-name="FL201Ch" unicode="&#x201c;" horiz-adv-x="729" 
d="M45 494l166 169h129v-353h-295v184zM388 494l166 169h130v-353h-296v184z" />
    <glyph glyph-name="FL201Dh" unicode="&#x201d;" horiz-adv-x="729" 
d="M684 480l-166 -169h-130v353h296v-184zM340 480l-165 -169h-130v353h295v-184z" />
    <glyph glyph-name="FL2022h" unicode="&#x2022;" horiz-adv-x="501" 
d="M434 480q17 0 18 -7.5t4 -23.5v-243q0 -8 -2.5 -15.5t-19.5 -7.5h-367q-17 0 -19.5 7.5t-2.5 15.5v243q3 16 4 23.5t18 7.5h367z" />
    <glyph glyph-name="FL2013h" unicode="&#x2013;" horiz-adv-x="579" 
d="M534 239h-489v184h489v-184z" />
    <glyph glyph-name="FL2014h" unicode="&#x2014;" horiz-adv-x="774" 
d="M729 239v184h-684v-184h684z" />
    <glyph glyph-name="FL02DCh" unicode="&#x2dc;" horiz-adv-x="760" 
d="M660 478l79 185h-210l-40 -97l-43 97h-342l-83 -186h211l41 97l42 -96h345z" />
    <glyph glyph-name="FL2122h" unicode="&#x2122;" horiz-adv-x="1182" 
d="M205 608v-240h140v240h177v91h-501v-91h184zM924 368l98 136v-136h139v331h-164l-138 -199l-150 199h-166v-331h139v141l105 -141h137z" />
    <glyph glyph-name="FL0161h" unicode="&#x161;" 
d="M67 183v-183h775q45 0 82.5 19.5t64.5 49.5t42.5 66t15.5 69q0 34 -16 73t-45 72t-68.5 55t-87.5 22h-479q-10 0 -12.5 9t-2.5 17q2 17 6 22.5t21 5.5h661v183h-763q-48 0 -88 -20t-68.5 -50.5t-44 -68.5t-15.5 -74q0 -35 16.5 -72t45.5 -68t68 -51t84 -20h449
q10 0 20.5 -11t10.5 -19q0 -5 -7 -15.5t-17 -10.5h-648zM789 724l107 183h-287l-55 -98l-58 98h-288l111 -183h470z" />
    <glyph glyph-name="FL203Ah" unicode="&#x203a;" horiz-adv-x="311" 
d="M266 136l-221 -92v239l118 47l-118 48v240l221 -92v-390z" />
    <glyph glyph-name="FL0153h" unicode="&#x153;" horiz-adv-x="1797" 
d="M1534 423v-184h-488v-37q0 -8 2.5 -13.5t19.5 -5.5h684v-183h-1491q-48 0 -88 20t-68.5 50.5t-44 68t-15.5 73.5v238q0 36 15.5 74t44 68.5t68.5 50.5t88 20h1491v-183h-684q-15 0 -17.5 -4.5t-3.5 -15.5v-37h487zM752 183v297h-389q-17 0 -19 -6.5t-2 -14.5v-245
q2 -16 3 -23.5t18 -7.5h389z" />
    <glyph glyph-name="FL017Eh" unicode="&#x17e;" horiz-adv-x="1091" 
d="M45 0h1001v183h-578l578 296v184h-1001v-184h579l-579 -296v-183zM789 724l115 183h-286l-64 -98l-58 98h-288l111 -183h470z" />
    <glyph glyph-name="FL0178h" unicode="&#x178;" 
d="M1046 663v-451q0 -36 -15.5 -74t-44 -68.5t-68 -50.5t-88.5 -20h-763v183h661q15 0 18.5 7.5t3.5 15.5v27q-3 4 -10 4h-479q-48 0 -87.5 22t-68.5 55t-45 72t-16 73v205h310q-1 -4 -1.5 -7t-0.5 -6v-13v-23v-43v-65v-53q0 -8 10.5 -19t21.5 -11h364v240h298zM894 907
v-183h-297v183h297zM501 907v-183h-296v183h296z" />
    <glyph glyph-name="FL00A1h" unicode="&#xa1;" horiz-adv-x="388" 
d="M45 479v183h297v-183h-297zM45 -1v423h298v-423h-298z" />
    <glyph glyph-name="FL00A2h" unicode="&#xa2;" 
d="M501 663v-68h-241q-49 0 -88.5 -20t-68 -50.5t-44 -68.5t-15.5 -74v-100q0 -36 15.5 -73.5t44 -68t68 -50.5t88.5 -20h241v-70h280v70h265v183h-265v159h265v183h-265v68h-280zM501 412v-159h-139q-17 0 -19.5 7.5t-2.5 15.5v105q3 16 4 23.5t18 7.5h139z" />
    <glyph glyph-name="FL00A3h" unicode="&#xa3;" horiz-adv-x="1034" 
d="M691 238h-211q-7 -5 -15 -13t-8 -13q0 -10 7.5 -17.5t18.5 -7.5h505v-187h-943v184h124q-1 4 -2 7t-1 7v27q0 11 2 13h-122v184h123q-1 4 -2 7t-1 6v15q0 33 14.5 70.5t41.5 69t65 52.5t85 21h477v-187h-366q-11 0 -21 -8t-10 -18q0 -4 7.5 -12t21.5 -16h210v-184z" />
    <glyph glyph-name="FL00A4h" unicode="&#xa4;" horiz-adv-x="1056" 
d="M133 420q0 49 37 92l-148 151h365l87 -89h109l86 89h365l-145 -150q18 -21 27.5 -45.5t9.5 -47.5v-172q0 -24 -10 -49.5t-30 -46.5l149 -152h-366l-92 94h-97l-93 -94h-366l150 153q-19 22 -28.5 46.5t-9.5 48.5v172zM675 442h-290q-14 0 -15 -6t-3 -17v-176q0 -6 2 -11
t16 -5h290q14 0 15.5 4.5t1.5 10.5v177q-3 10 -3 17q0 6 -14 6z" />
    <glyph glyph-name="FL00A5h" unicode="&#xa5;" horiz-adv-x="1312" 
d="M1005 62v89h-213v2l25 26h188v90h-101l387 394h-361l-276 -272l-267 272h-366l382 -394h-111v-90h198l26 -26v-2h-224v-89h224v-62h276v62h213z" />
    <glyph glyph-name="FL00A6h" unicode="&#xa6;" horiz-adv-x="388" 
d="M343 298v-298h-297v298h297zM343 663v-308h-298v308h298z" />
    <glyph glyph-name="FL00A7h" unicode="&#xa7;" horiz-adv-x="1056" 
d="M133 420q0 12 5 33.5t13.5 43.5t21 40t27.5 22l60 15h323l86 89h365l-145 -150q18 -21 27.5 -45.5t9.5 -47.5v-172q0 -12 -3.5 -33.5t-11 -43t-18 -39.5t-25.5 -23l-44 -15h-344l-93 -94h-366l150 153q-19 22 -28.5 46.5t-9.5 48.5v172zM675 442h-290q-14 0 -15 -6
t-3 -17v-176q0 -6 2 -11t16 -5h290q14 0 15.5 4.5t1.5 10.5v177q-3 10 -3 17q0 6 -14 6z" />
    <glyph glyph-name="FL00A8h" unicode="&#xa8;" horiz-adv-x="779" 
d="M734 662v-183h-296v183h296zM342 662v-183h-297v183h297z" />
    <glyph glyph-name="FL00AEh" unicode="&#xa9;" horiz-adv-x="591" 
d="M45 593q0 18 8 37t22.5 34t34 25t43.5 10h286q24 0 43.5 -10t33.5 -25t22 -34t8 -37v-119q0 -18 -8 -37t-22 -34t-33.5 -25t-43.5 -10h-286q-24 0 -43.5 10t-34 25t-22.5 34t-8 37v119zM187 506q0 -17 13 -33t34 -16h170v42h-146q-6 0 -6 6v56q1 1 1 5q0 2 5 2h146v43
h-170q-21 0 -34 -16.5t-13 -33.5v-55z" />
    <glyph glyph-name="FL00AAh" unicode="&#xaa;" horiz-adv-x="1302" 
d="M1257 -1h-293v152l-264 -152h-679l742 662h494v-662zM964 185v294l-332 -294h332z" />
    <glyph glyph-name="FL00ABh" unicode="&#xab;" horiz-adv-x="582" 
d="M316 136l221 -92v239l-117 47l117 48v240l-221 -92v-390zM45 136l221 -92v239l-118 47l118 48v240l-221 -92v-390z" />
    <glyph glyph-name="FL00ACh" unicode="&#xac;" horiz-adv-x="821" 
d="M555 125v112h-510v185h731v-297h-221z" />
    <glyph glyph-name="FL00ADh" unicode="&#xad;" horiz-adv-x="470" 
d="M424 239v184h-379v-184h379z" />
    <glyph glyph-name="FL00A9h" unicode="&#xae;" horiz-adv-x="1155" 
d="M45 663v-663h281v476h464q12 0 22 -8t10 -18q0 -8 -4 -18.5t-18 -10.5h-408v-166l509 -399h417l-465 369l-1 4q55 6 102 24t81 46.5t53 66.5t19 84q0 33 -14.5 70.5t-41 69t-64.5 52.5t-85 21h-857z" />
    <glyph glyph-name="FL0FE8h" unicode="&#xaf;" horiz-adv-x="832" 
d="M787 663h-742v-182h742v182z" />
    <glyph glyph-name="FL00B0h" unicode="&#xb0;" horiz-adv-x="387" 
d="M342 662v-183h-297v183h297z" />
    <glyph glyph-name="FL00B1h" unicode="&#xb1;" horiz-adv-x="822" 
d="M301 255v112h-256v183h256v112h221v-112h254v-184h-254v-111h-221zM46 0v183h731v-184z" />
    <glyph glyph-name="FL00B2h" unicode="&#xb2;" horiz-adv-x="591" 
d="M56 607h324q5 0 8.5 -5t3.5 -8q0 -4 -5.5 -9.5t-10.5 -5.5h-224q-23 0 -42.5 -10t-33.5 -25.5t-22.5 -34t-8.5 -35.5v-107h490v92h-343v15q0 12 6 12h240q24 0 43.5 11t34 27.5t22.5 36t8 36.5q0 16 -8 34t-21.5 33t-32 25t-40.5 10h-388v-92z" />
    <glyph glyph-name="FL00B3h" unicode="&#xb3;" horiz-adv-x="591" 
d="M388 487h-199v2h-1v90h200q15 7 15 14q0 13 -16 13h-341v93h398q23 0 42 -10.5t32.5 -26t20.5 -34.5t7 -35q0 -35 -28 -60q17 -12 22.5 -27t5.5 -32t-7 -35.5t-20.5 -34.5t-32.5 -26t-42 -10h-399v93h342q13 0 13 13q0 2 -4 6.5t-8 6.5z" />
    <glyph glyph-name="FL00B4h" unicode="&#xb4;" horiz-adv-x="436" 
d="M132 661l-111 -183h287l107 183h-283z" />
    <glyph glyph-name="FL00B5h" unicode="&#xb5;" 
d="M43 663v-451q0 -36 15.5 -74t44 -68.5t68 -50.5t88.5 -20h763v183h-661q-16 0 -19 7.5t-3 15.5v27q1 4 10 4h479q48 0 87.5 22t68.5 55t45 72t16 73v205h-310q1 -3 1 -13v-13v-23v-43v-65v-53q0 -8 -10.5 -19t-20.5 -11h-365v240h-297z" />
    <glyph glyph-name="FL00B6h" unicode="&#xb6;" horiz-adv-x="1697" 
d="M1652 326q0 23 -140 61q75 7 75 47v5v5l-213 42q43 6 43 47l-22 17h-254l9 49l-74 7l-212 -32l-10 8l10 24l-42 25l-192 -73l-96 48q-53 -17 -126 -96l-119 32h-6q-48 0 -48 -115l-126 9l-11 -49l64 -57l-117 -15l11 -40l118 -42l-65 -41q0 -32 32 -32l169 -23l-32 -26
v-31l276 -17l-11 -40l34 -16l265 32v-49l32 -8l202 81l65 -49l53 9l105 88q35 -16 61.5 -24.5t46.5 -8.5q30 0 42 18l11 96l106 -16q33 7 33 35v6q0 8 -1 9l-65 64h96l21 33q2 2 2 3zM1618 315l-136 -9q86 -74 86 -98l-0.5 -2l-1.5 -6l-140 17l-9 -114l-138 34l-106 -98
l-97 48l-212 -80l10 32l-32 32l-265 -40l31 56l-298 9l87 47l-256 42l117 41l-180 72l136 8l-73 73l-11 33l138 -8l21 113q68 -35 104 -35q18 0 25 4l116 96l85 -49l192 73l21 -7l10 -49l277 32l-21 -57h286l-85 -48l245 -41l12 -16h-12l-107 -24l171 -66zM1411 371l-46 9
l-7 -110l30 -4zM1394 222l-29 9l-25 -15l23 -16zM1314 230v142l-33 8l-7 -100l-107 91l4 -142l27 2v70q71 -71 116 -71zM1136 231l-4 107q-12 45 -48 45q-18 0 -25 -4q-68 -74 -77 -142h39q22 33 48 33q25 0 43 -33zM961 380l-36 -6l-19 -145l45 10zM871 225v141l-34 8
l-5 -99l-109 91l4 -144l29 4v69q67 -70 115 -70zM702 325q-17 48 -77 48h-11q1 0 -1 -0.5t-9 -0.5q-70 -33 -70 -125q12 -24 64 -24q8 0 15 0.5t15 1.5q56 0 74 100zM520 377q-138 -17 -138 -83q0 -5 1 -8.5t2 -10.5q18 -63 73 -63q6 0 15 2t23 4l-2 25q-7 -4 -36 -4
q-41 0 -41 28q0 31 29 58q29 20 50 20q7 0 10.5 -0.5t10.5 -2.5zM363 374l-35 -6l-18 -146l44 11zM1101 301h-61l38 48zM667 305q0 -23 -17 -43q-30 -12 -49 -12q-31 0 -31 35q0 9 1 10q22 45 55 45q22 0 35 -19q6 -6 6 -16z" />
    <glyph glyph-name="FL00B7h" unicode="&#xb7;" horiz-adv-x="387" 
d="M342 422v-183h-297v183h297z" />
    <glyph glyph-name="FL00B8h" unicode="&#xb8;" horiz-adv-x="321" 
d="M-119 -169h395v169h-221v-53h-174v-116z" />
    <glyph glyph-name="FL00B9h" unicode="&#xb9;" horiz-adv-x="510" 
d="M45 459v-91h420v91h-140v240h-280v-91h141v-149h-141z" />
    <glyph glyph-name="FL00BAh" unicode="&#xba;" horiz-adv-x="591" 
d="M45 474q0 -18 8 -37t22.5 -34t34 -25t43.5 -10h286q24 0 43.5 10t33.5 25t22 34t8 37v119q0 18 -8 37t-22 34t-33.5 25t-43.5 10h-286q-24 0 -43.5 -10t-34 -25t-22.5 -34t-8 -37v-119zM387 608q10 0 10 -4q0 -11 1 -12v-121q0 -5 -1.5 -8.5t-9.5 -3.5h-183
q-8 0 -9.5 3.5t-1.5 8.5v121q1 5 1.5 8t0.5 4q0 4 9 4h183z" />
    <glyph glyph-name="FL00BBh" unicode="&#xbb;" horiz-adv-x="582" 
d="M266 136l-221 -92v239l118 47l-118 48v240l221 -92v-390zM537 136l-221 -92v239l118 47l-118 48v240l221 -92v-390z" />
    <glyph glyph-name="FL00BCh" unicode="&#xbc;" horiz-adv-x="1160" 
d="M742 664h230l-578 -664h-226zM21 424h141v149h-141v91h280v-240h140v-91h-420v91zM1138 77h-70v-77h-147v77h-284v92l183 162h248v-162h70v-92zM805 171h83v77z" />
    <glyph glyph-name="FL00BDh" unicode="&#xbd;" horiz-adv-x="1260" 
d="M766 664h230l-578 -664h-226zM45 424h141v149h-141v91h280v-240h140v-91h-420v91zM726 240v92h387q22 0 41 -10t32.5 -25t21 -33t7.5 -34q0 -17 -8 -36.5t-22 -36t-34 -27.5t-44 -11h-240q-6 0 -6 -12v-15h343v-92h-489v107q0 17 8.5 35.5t22.5 34t33.5 25.5t42.5 10h224
q5 0 10.5 5.5t5.5 9.5q0 3 -3.5 8t-8.5 5h-324z" />
    <glyph glyph-name="FL00BEh" unicode="&#xbe;" horiz-adv-x="1236" 
d="M964 248v-77h-82zM1215 169h-71v162h-247l-183 -162v-92h284v-77h146v77h71v92zM244 0h227l577 664h-229zM364 451q4 -2 8 -6.5t4 -6.5q0 -13 -13 -13h-342v-93h399q23 0 42 10t32.5 26t20.5 34.5t7 35.5t-5.5 32t-22.5 27q28 25 28 60q0 16 -7 35t-20.5 34.5t-32.5 26
t-42 10.5h-398v-93h341q16 0 16 -13q0 -7 -15 -14h-200v-90h1v-2h199z" />
    <glyph glyph-name="FL00BFh" unicode="&#xbf;" horiz-adv-x="1071" 
d="M890 479v183h-296v-183h296zM1024 183h-648q-10 0 -17 10.5t-7 15.5q0 8 10.5 19t21.5 11h507v187h-630q-48 0 -87.5 -22t-68.5 -55t-45 -72t-16 -73q0 -33 15.5 -69t42.5 -66t64.5 -49.5t82.5 -19.5h775v183z" />
    <glyph glyph-name="FL00C0h" unicode="&#xc0;" horiz-adv-x="1282" 
d="M799 187h-309l149 204l2 0.5t3 0.5q3 0 4.5 -0.5l1.5 -0.5q7 -1 10 -9zM1052 -145h317l-587 808h-272l-489 -663h679l113 153h10zM705 905h-285l106 -183h287z" />
    <glyph glyph-name="FL00C1h" unicode="&#xc1;" horiz-adv-x="1282" 
d="M823 153h-10l-113 -153h-679l489 663h272l587 -808h-317zM660 382q-3 8 -10 9l-1.5 0.5t-4.5 0.5q-1 0 -3 -0.5l-2 -0.5l-149 -204h309zM577 906h285l-106 -183h-287z" />
    <glyph glyph-name="FL00C2h" unicode="&#xc2;" horiz-adv-x="1282" 
d="M823 153h-10l-113 -153h-679l489 663h272l587 -808h-317zM660 382q-3 8 -10 9l-1.5 0.5t-4.5 0.5q-1 0 -3 -0.5l-2 -0.5l-149 -204h309zM411 906h468l111 -184h-288l-58 98l-56 -98h-287z" />
    <glyph glyph-name="FL00C3h" unicode="&#xc3;" horiz-adv-x="1282" 
d="M823 153h-10l-113 -153h-679l489 663h272l587 -808h-317zM660 382q-3 8 -10 9l-1.5 0.5t-4.5 0.5q-1 0 -3 -0.5l-2 -0.5l-149 -204h309zM927 722h-344l-42 96l-41 -97h-211l83 186h342l43 -97l39 97h210z" />
    <glyph glyph-name="FL00C4h" unicode="&#xc4;" horiz-adv-x="1282" 
d="M660 382q-3 8 -10 9l-1.5 0.5t-4.5 0.5q-1 0 -3 -0.5l-2 -0.5l-149 -204h309zM1052 -145l-229 298h-10l-113 -153h-679l489 663h272l587 -808h-317zM990 905v-183h-297v183h297zM597 905v-183h-296v183h296z" />
    <glyph glyph-name="FL00C9h" unicode="&#xc5;" horiz-adv-x="1282" 
d="M660 382q-3 8 -10 9l-1.5 0.5t-4.5 0.5q-1 0 -3 -0.5l-2 -0.5l-149 -204h309zM1052 -145l-229 298h-10l-113 -153h-679l489 663h272l587 -808h-317zM793 905v-183h-297v183h297z" />
    <glyph glyph-name="FL00C6h" unicode="&#xc6;" horiz-adv-x="2001" 
d="M21 0h318l117 153l122 -153h1378v183h-684q-17 0 -19.5 6.5t-2.5 14.5v35h488v184h-488v26q3 16 4 23.5t18 7.5h684v183h-786q-49 0 -88.5 -20t-68 -50.5t-44 -68.5t-15.5 -74v-37l-184 250h-274zM481 187l149 204l158 -204h-307z" />
    <glyph glyph-name="FL00C7h" unicode="&#xc7;" 
d="M343 -169h395v169h309v183h-684q-17 0 -18 7.5t-3 23.5v243q0 8 2 15.5t19 7.5h390v-89h294v272h-786q-48 0 -88 -20t-68.5 -50.5t-44 -68.5t-15.5 -74v-238q0 -36 15.5 -73.5t44 -68t68.5 -50.5t88 -20h256v-53h-174v-116z" />
    <glyph glyph-name="FL00C8h" unicode="&#xc8;" 
d="M340 239v-56h707v-183h-1002v450q0 36 15.5 74t44 68.5t68.5 50.5t88 20h786v-183h-684q-17 0 -18 -7.5t-3 -23.5v-26h488v-184h-490zM631 907l108 -183h-287l-107 183h286z" />
    <glyph glyph-name="FL00D7h" unicode="&#xc9;" 
d="M830 239v184h-488v26q2 16 3 23.5t18 7.5h684v183h-786q-48 0 -88 -20t-68.5 -50.5t-44 -68.5t-15.5 -74v-450h1002v183h-707v56h490zM524 906l-108 -183h287l107 183h-286z" />
    <glyph glyph-name="FL00CAh" unicode="&#xca;" 
d="M830 239v184h-488v26q2 16 3 23.5t18 7.5h684v183h-786q-48 0 -88 -20t-68.5 -50.5t-44 -68.5t-15.5 -74v-450h1002v183h-707v56h490zM348 908l-111 -184h287l56 98l58 -98h288l-110 184h-468z" />
    <glyph glyph-name="FL00CBh" unicode="&#xcb;" 
d="M340 239v-56h707v-183h-1002v450q0 36 15.5 74t44 68.5t68.5 50.5t88 20h786v-183h-684q-17 0 -18 -7.5t-3 -23.5v-26h488v-184h-490zM914 904v-183h-296v183h296zM522 904v-183h-297v183h297z" />
    <glyph glyph-name="FL00CCh" unicode="&#xcc;" horiz-adv-x="930" 
d="M885 183v-183h-840v183h280v297h-280v183h840v-183h-281v-297h281zM558 908l110 -183h-287l-107 183h284z" />
    <glyph glyph-name="FL00CDh" unicode="&#xcd;" horiz-adv-x="930" 
d="M45 183v-183h840v183h-279v297h279v183h-840v-183h281v-297h-281zM373 908l-111 -183h287l107 183h-283z" />
    <glyph glyph-name="FL00CEh" unicode="&#xce;" horiz-adv-x="930" 
d="M45 183v-183h840v183h-279v297h279v183h-840v-183h281v-297h-281zM235 908l-111 -184h287l57 98l57 -98h288l-110 184h-468z" />
    <glyph glyph-name="FL00CFh" unicode="&#xcf;" horiz-adv-x="930" 
d="M326 183v297h-281v183h840v-183h-279v-297h279v-183h-840v183h281zM813 906v-183h-296v183h296zM421 906v-183h-297v183h297z" />
    <glyph glyph-name="FL00D0h" unicode="&#xd0;" horiz-adv-x="1283" 
d="M236 663v-240h-191v-183h191v-240h787q49 0 89 20t68 50.5t43 68t15 73.5v238q0 36 -15 74t-43 68.5t-68 50.5t-89 20h-787zM724 239v184h-208v57h405q17 0 18 -7.5t4 -23.5v-243q0 -8 -2.5 -15.5t-19.5 -7.5h-405v56h208z" />
    <glyph glyph-name="FL00D1h" unicode="&#xd1;" horiz-adv-x="1182" 
d="M858 663v-388l-394 388h-419v-663h280v388l393 -388h419v663h-279zM892 722l80 185h-210l-40 -97l-43 97h-342l-83 -186h211l41 97l42 -96h344z" />
    <glyph glyph-name="FL00D2h" unicode="&#xd2;" horiz-adv-x="1150" 
d="M362 479q-17 0 -18 -7.5t-4 -23.5v-241q0 -8 2.5 -16t17.5 -8h426q17 0 19 7.5t2 15.5v243q-2 15 -3.5 22.5t-15.5 7.5h-426zM1104 212q0 -36 -15.5 -73.5t-44 -68.5t-68.5 -51t-88 -20h-628q-49 0 -88.5 20t-68 50.5t-44 68.5t-15.5 74v238q0 36 15.5 73.5t44 68.5
t68 51t88.5 20h628q48 0 88 -20t68.5 -50.5t44 -68.5t15.5 -74v-238zM648 906l108 -183h-287l-107 183h286z" />
    <glyph glyph-name="FL00D3h" unicode="&#xd3;" horiz-adv-x="1150" 
d="M787 479q17 0 18 -7.5t3 -23.5v-241q0 -8 -2.5 -16t-16.5 -8h-426q-17 0 -19 7.5t-2 15.5v243q2 15 3.5 22.5t15.5 7.5h426zM45 212q0 -36 15.5 -73.5t44 -68.5t68.5 -51t88 -20h628q48 0 88 20t68.5 50.5t44 68.5t15.5 74v238q0 36 -15.5 73.5t-44 68.5t-68.5 51t-88 20
h-628q-48 0 -88 -20t-68.5 -50.5t-44 -68.5t-15.5 -74v-238zM501 906l-108 -183h287l107 183h-286z" />
    <glyph glyph-name="FL00D4h" unicode="&#xd4;" horiz-adv-x="1150" 
d="M787 479q17 0 18 -7.5t3 -23.5v-241q0 -8 -2.5 -16t-16.5 -8h-426q-17 0 -19 7.5t-2 15.5v243q2 15 3.5 22.5t15.5 7.5h426zM45 212q0 -36 15.5 -73.5t44 -68.5t68.5 -51t88 -20h628q48 0 88 20t68.5 50.5t44 68.5t15.5 74v238q0 36 -15.5 73.5t-44 68.5t-68.5 51t-88 20
h-628q-48 0 -88 -20t-68.5 -50.5t-44 -68.5t-15.5 -74v-238zM338 907l-110 -184h286l57 98l57 -98h288l-110 184h-468z" />
    <glyph glyph-name="FL00D5h" unicode="&#xd5;" horiz-adv-x="1150" 
d="M787 479q17 0 18 -7.5t3 -23.5v-241q0 -8 -2.5 -16t-16.5 -8h-426q-17 0 -19 7.5t-2 15.5v243q2 15 3.5 22.5t15.5 7.5h426zM45 212q0 -36 15.5 -73.5t44 -68.5t68.5 -51t88 -20h628q48 0 88 20t68.5 50.5t44 68.5t15.5 74v238q0 36 -15.5 73.5t-44 68.5t-68.5 51t-88 20
h-628q-48 0 -88 -20t-68.5 -50.5t-44 -68.5t-15.5 -74v-238zM854 725l79 185h-210l-39 -97l-44 97h-342l-82 -186h211l41 97l42 -96h344z" />
    <glyph glyph-name="FL00D6h" unicode="&#xd6;" horiz-adv-x="1150" 
d="M45 212v238q0 36 15.5 74t44 68.5t68.5 50.5t88 20h628q48 0 88 -20t68.5 -51t44 -68.5t15.5 -73.5v-238q0 -36 -15.5 -74t-44 -68.5t-68.5 -50.5t-88 -20h-628q-48 0 -88 20t-68.5 51t-44 68.5t-15.5 73.5zM787 479h-426q-14 0 -15.5 -7.5t-3.5 -22.5v-243q0 -8 2 -15.5
t19 -7.5h426q14 0 16.5 8t2.5 16v241q-2 16 -3 23.5t-18 7.5zM916 907v-183h-296v183h296zM524 907v-183h-296v183h296z" />
    <glyph glyph-name="FL0916h" unicode="&#xd7;" horiz-adv-x="807" 
d="M786 545l-237 -232l237 -232h-293l-89 88l-90 -88h-293l237 232l-237 232h293l90 -88l89 88h293z" />
    <glyph glyph-name="FL00D8h" unicode="&#xd8;" 
d="M45 450v-238q0 -36 15.5 -73.5t44 -68t68.5 -50.5t88 -20h571q49 0 89 20t68 50.5t43 68t15 73.5v238q0 36 -15 74t-43 68.5t-68 50.5t-89 20h-571q-48 0 -88 -20t-68.5 -50.5t-44 -68.5t-15.5 -74zM363 480h133l-154 -222v191q2 16 3 23.5t18 7.5zM752 383v-177
q0 -8 -2.5 -15.5t-19.5 -7.5h-121z" />
    <glyph glyph-name="FL00D9h" unicode="&#xd9;" 
d="M339 663v-457q0 -8 2.5 -15.5t19.5 -7.5h367q17 0 19.5 7.5t2.5 15.5v457h296v-451q0 -36 -15.5 -73.5t-44 -68t-68 -50.5t-88.5 -20h-571q-50 0 -89.5 20t-67.5 50.5t-43 68t-15 73.5v451h295zM631 907l108 -183h-287l-107 183h286z" />
    <glyph glyph-name="FL00DAh" unicode="&#xda;" 
d="M752 663v-457q0 -8 -2.5 -15.5t-19.5 -7.5h-367q-17 0 -19 7.5t-2 15.5v457h-297v-451q0 -36 15.5 -73.5t44 -68t68.5 -50.5t88 -20h571q49 0 89 20t68 50.5t43 68t15 73.5v451h-295zM460 907l-108 -183h287l107 183h-286z" />
    <glyph glyph-name="FL00DBh" unicode="&#xdb;" 
d="M752 663v-457q0 -8 -2.5 -15.5t-19.5 -7.5h-367q-17 0 -19 7.5t-2 15.5v457h-297v-451q0 -36 15.5 -73.5t44 -68t68.5 -50.5t88 -20h571q49 0 89 20t68 50.5t43 68t15 73.5v451h-295zM315 908l-110 -184h287l56 98l58 -98h288l-111 184h-468z" />
    <glyph glyph-name="FL00DCh" unicode="&#xdc;" 
d="M752 663h295v-451q0 -36 -15 -73.5t-43 -68t-68 -50.5t-89 -20h-571q-48 0 -88 20t-68.5 50.5t-44 68t-15.5 73.5v451h297v-457q0 -8 2 -15.5t19 -7.5h367q17 0 19.5 7.5t2.5 15.5v457zM894 907v-183h-297v183h297zM501 907v-183h-296v183h296z" />
    <glyph glyph-name="FL00DDh" unicode="&#xdd;" 
d="M748 663v-240h-364q-11 0 -21.5 11t-10.5 19v53v65v43v23v13q0 3 0.5 6t1.5 7h-310v-205q0 -34 16 -73t45 -72t68.5 -55t87.5 -22h479q7 0 10 -4v-27q0 -8 -3.5 -15.5t-18.5 -7.5h-661v-183h763q49 0 88.5 20t68 50.5t44 68.5t15.5 74v451h-298zM460 907l-108 -183h287
l107 183h-286z" />
    <glyph glyph-name="FL00DEh" unicode="&#xde;" horiz-adv-x="1152" 
d="M45 663v-663h281v109h528q55 6 102 23.5t81.5 46t53.5 66t19 84.5q0 33 -14.5 70.5t-41.5 69t-65 52.5t-85 21h-577v121h-282zM327 360h466q11 0 21 -10.5t10 -20.5q0 -8 -4 -18.5t-18 -10.5h-475v60z" />
    <glyph glyph-name="FL00DFh" unicode="&#xdf;" horiz-adv-x="1091" 
d="M45 -170h279v646h405q12 0 21.5 -8t9.5 -18q0 -4 -7 -12t-21 -16h-345v-180h1v-3h344q6 -5 15 -13.5t9 -13.5q0 -10 -7.5 -17.5t-19.5 -7.5h-341v-187h453q47 0 85 20.5t64.5 52t41 69t14.5 70.5q0 35 -11 65t-44 54q28 27 41.5 55.5t13.5 63.5q0 33 -14.5 70.5t-41 69
t-64.5 52.5t-85 21h-684l-111 -92z" />
    <glyph glyph-name="FL00E0h" unicode="&#xe0;" horiz-adv-x="1278" 
d="M788 187h-307l149 204zM496 663l-475 -663h318l117 153l122 -153h679l-487 663h-274zM722 902h-286l107 -183h287z" />
    <glyph glyph-name="FL00E1h" unicode="&#xe1;" horiz-adv-x="1278" 
d="M770 663l487 -663h-679l-122 153l-117 -153h-318l475 663h274zM630 391l-149 -204h307zM556 902h286l-107 -183h-287z" />
    <glyph glyph-name="FL00E2h" unicode="&#xe2;" horiz-adv-x="1278" 
d="M770 663l487 -663h-679l-122 153l-117 -153h-318l475 663h274zM630 391l-149 -204h307zM404 905h468l110 -184h-288l-57 98l-57 -98h-286z" />
    <glyph glyph-name="FL00E3h" unicode="&#xe3;" horiz-adv-x="1278" 
d="M770 663l487 -663h-679l-122 153l-117 -153h-318l475 663h274zM630 391l-149 -204h307zM918 719h-345l-42 96l-41 -97h-211l83 186h342l43 -97l40 97h210z" />
    <glyph glyph-name="FL00E4h" unicode="&#xe4;" horiz-adv-x="1278" 
d="M788 187l-158 204l-149 -204h307zM496 663h274l487 -663h-679l-122 153l-117 -153h-318zM982 903v-183h-296v183h296zM590 903v-183h-296v183h296z" />
    <glyph glyph-name="FL00E5h" unicode="&#xe5;" horiz-adv-x="1278" 
d="M788 187l-158 204l-149 -204h307zM496 663h274l487 -663h-679l-122 153l-117 -153h-318zM781 905v-183h-297v183h297z" />
    <glyph glyph-name="FL00E6h" unicode="&#xe6;" horiz-adv-x="2001" 
d="M21 0h318l117 153l122 -153h1378v183h-684q-17 0 -19.5 6.5t-2.5 14.5v35h488v184h-488v26q3 16 4 23.5t18 7.5h684v183h-786q-49 0 -88.5 -20t-68 -50.5t-44 -68.5t-15.5 -74v-37l-184 250h-274zM481 187l149 204l158 -204h-307z" />
    <glyph glyph-name="FL00E7h" unicode="&#xe7;" 
d="M343 -169h395v169h309v183h-684q-17 0 -19 7.5t-2 15.5v243q2 16 3 23.5t18 7.5h684v183h-786q-48 0 -88 -20t-68.5 -50.5t-44 -68.5t-15.5 -74v-238q0 -36 15.5 -73.5t44 -68t68.5 -50.5t88 -20h256v-53h-174v-116z" />
    <glyph glyph-name="FL00E8h" unicode="&#xe8;" 
d="M830 239h-488v-35q0 -8 2 -14.5t19 -6.5h684v-183h-786q-48 0 -88 20t-68.5 50.5t-44 68t-15.5 73.5v238q0 36 15.5 74t44 68.5t68.5 50.5t88 20h786v-183h-684q-17 0 -18 -7.5t-3 -23.5v-26h488v-184zM631 907l108 -183h-287l-107 183h286z" />
    <glyph glyph-name="FL00E9h" unicode="&#xe9;" 
d="M830 423h-488v26q2 16 3 23.5t18 7.5h684v183h-786q-48 0 -88 -20t-68.5 -50.5t-44 -68.5t-15.5 -74v-238q0 -36 15.5 -73.5t44 -68t68.5 -50.5t88 -20h786v183h-684q-17 0 -19 6.5t-2 14.5v35h488v184zM524 906l-108 -183h287l107 183h-286z" />
    <glyph glyph-name="FL00EAh" unicode="&#xea;" 
d="M830 423h-488v26q2 16 3 23.5t18 7.5h684v183h-786q-48 0 -88 -20t-68.5 -50.5t-44 -68.5t-15.5 -74v-238q0 -36 15.5 -73.5t44 -68t68.5 -50.5t88 -20h786v183h-684q-17 0 -19 6.5t-2 14.5v35h488v184zM348 908l-111 -184h287l56 98l58 -98h288l-110 184h-468z" />
    <glyph glyph-name="FL00EBh" unicode="&#xeb;" 
d="M830 239h-488v-35q0 -8 2 -14.5t19 -6.5h684v-183h-786q-48 0 -88 20t-68.5 50.5t-44 68t-15.5 73.5v238q0 36 15.5 74t44 68.5t68.5 50.5t88 20h786v-183h-684q-17 0 -18 -7.5t-3 -23.5v-26h488v-184zM914 904v-183h-296v183h296zM522 904v-183h-297v183h297z" />
    <glyph glyph-name="FL00ECh" unicode="&#xec;" horiz-adv-x="371" 
d="M327 0h-279v663h279v-663zM276 907l110 -183h-287l-107 183h284z" />
    <glyph glyph-name="FL00EDh" unicode="&#xed;" horiz-adv-x="370" 
d="M45 0h280v663h-280v-663zM97 907l-111 -183h287l107 183h-283z" />
    <glyph glyph-name="FL00EEh" unicode="&#xee;" horiz-adv-x="375" 
d="M45 0h285v663h-285v-663zM-45 908l-110 -184h287l56 98l58 -98h288l-111 184h-468z" />
    <glyph glyph-name="FL00EFh" unicode="&#xef;" horiz-adv-x="375" 
d="M45 663h285v-663h-285v663zM534 907v-183h-297v183h297zM141 907v-183h-296v183h296z" />
    <glyph glyph-name="FL00F0h" unicode="&#xf0;" 
d="M1046 212v238q0 36 -15.5 74t-44 68.5t-68 50.5t-88.5 20h-763v-183h661q15 0 18.5 -7.5t3.5 -15.5v-27q-3 -4 -10 -4h-479q-48 0 -87.5 -22t-68.5 -55t-45 -72t-16 -73q0 -33 15.5 -69t42.5 -66t64.5 -49.5t82.5 -19.5h581q49 0 88.5 20t68 50.5t44 68t15.5 73.5z
M376 183q-10 0 -17 10.5t-7 15.5q0 8 10.5 19t21.5 11h366v-31q0 -8 -2 -16t-16 -9h-356z" />
    <glyph glyph-name="FL00F1h" unicode="&#xf1;" horiz-adv-x="1281" 
d="M825 663v-388l-392 388h-388v-663h280v388l402 -388h378v663h-280zM871 721l79 185h-210l-40 -97l-43 97h-342l-83 -186h212l40 97l42 -96h345z" />
    <glyph glyph-name="FL00F2h" unicode="&#xf2;" 
d="M1046 212q0 -36 -15.5 -73.5t-44 -68t-68 -50.5t-88.5 -20h-571q-50 0 -89.5 20t-67.5 50.5t-43 68t-15 73.5v238q0 36 15 74t43 68.5t67.5 50.5t89.5 20h571q49 0 88.5 -20t68 -50.5t44 -68.5t15.5 -74v-238zM361 480q-17 0 -18 -7.5t-4 -23.5v-243q0 -8 2.5 -15.5
t19.5 -7.5h367q17 0 19.5 7.5t2.5 15.5v243q-3 16 -4 23.5t-18 7.5h-367zM631 907l108 -183h-287l-107 183h286z" />
    <glyph glyph-name="FL00F3h" unicode="&#xf3;" 
d="M45 212q0 -36 15.5 -73.5t44 -68t68.5 -50.5t88 -20h571q49 0 89 20t68 50.5t43 68t15 73.5v238q0 36 -15 74t-43 68.5t-68 50.5t-89 20h-571q-48 0 -88 -20t-68.5 -50.5t-44 -68.5t-15.5 -74v-238zM730 480q17 0 18 -7.5t4 -23.5v-243q0 -8 -2.5 -15.5t-19.5 -7.5h-367
q-17 0 -19 7.5t-2 15.5v243q2 16 3 23.5t18 7.5h367zM460 907l-108 -183h287l107 183h-286z" />
    <glyph glyph-name="FL00F4h" unicode="&#xf4;" 
d="M45 212q0 -36 15.5 -73.5t44 -68t68.5 -50.5t88 -20h571q49 0 89 20t68 50.5t43 68t15 73.5v238q0 36 -15 74t-43 68.5t-68 50.5t-89 20h-571q-48 0 -88 -20t-68.5 -50.5t-44 -68.5t-15.5 -74v-238zM730 480q17 0 18 -7.5t4 -23.5v-243q0 -8 -2.5 -15.5t-19.5 -7.5h-367
q-17 0 -19 7.5t-2 15.5v243q2 16 3 23.5t18 7.5h367zM319 907l-111 -184h287l57 98l57 -98h288l-110 184h-468z" />
    <glyph glyph-name="FL00F5h" unicode="&#xf5;" 
d="M45 212q0 -36 15.5 -73.5t44 -68t68.5 -50.5t88 -20h571q49 0 89 20t68 50.5t43 68t15 73.5v238q0 36 -15 74t-43 68.5t-68 50.5t-89 20h-571q-48 0 -88 -20t-68.5 -50.5t-44 -68.5t-15.5 -74v-238zM828 722l79 185h-210l-40 -97l-43 97h-342l-83 -186h211l41 97l42 -96
h345zM730 480q17 0 18 -7.5t4 -23.5v-243q0 -8 -2.5 -15.5t-19.5 -7.5h-367q-17 0 -19 7.5t-2 15.5v243q2 16 3 23.5t18 7.5h367z" />
    <glyph glyph-name="FL00F6h" unicode="&#xf6;" 
d="M363 480q-17 0 -18 -7.5t-3 -23.5v-243q0 -8 2 -15.5t19 -7.5h367q17 0 19.5 7.5t2.5 15.5v243q-3 16 -4 23.5t-18 7.5h-367zM45 450q0 36 15.5 74t44 68.5t68.5 50.5t88 20h571q49 0 89 -20t68 -50.5t43 -68.5t15 -74v-238q0 -36 -15 -73.5t-43 -68t-68 -50.5t-89 -20
h-571q-48 0 -88 20t-68.5 50.5t-44 68t-15.5 73.5v238zM894 907v-183h-297v183h297zM501 907v-183h-296v183h296z" />
    <glyph glyph-name="FL00F7h" unicode="&#xf7;" horiz-adv-x="774" 
d="M45 239v184h684v-184h-684zM536 183v-183h-296v183h296zM536 663v-183h-296v183h296z" />
    <glyph glyph-name="FL00F8h" unicode="&#xf8;" 
d="M45 450v-238q0 -36 15.5 -73.5t44 -68t68.5 -50.5t88 -20h571q49 0 89 20t68 50.5t43 68t15 73.5v238q0 36 -15 74t-43 68.5t-68 50.5t-89 20h-571q-48 0 -88 -20t-68.5 -50.5t-44 -68.5t-15.5 -74zM363 480h133l-154 -222v191q2 16 3 23.5t18 7.5zM752 383v-177
q0 -8 -2.5 -15.5t-19.5 -7.5h-121z" />
    <glyph glyph-name="FL00F9h" unicode="&#xf9;" 
d="M339 663v-457q0 -8 2.5 -15.5t19.5 -7.5h367q17 0 19.5 7.5t2.5 15.5v457h296v-451q0 -36 -15.5 -73.5t-44 -68t-68 -50.5t-88.5 -20h-571q-50 0 -89.5 20t-67.5 50.5t-43 68t-15 73.5v451h295zM631 907l108 -183h-287l-107 183h286z" />
    <glyph glyph-name="FL00FAh" unicode="&#xfa;" 
d="M752 663v-457q0 -8 -2.5 -15.5t-19.5 -7.5h-367q-17 0 -19 7.5t-2 15.5v457h-297v-451q0 -36 15.5 -73.5t44 -68t68.5 -50.5t88 -20h571q49 0 89 20t68 50.5t43 68t15 73.5v451h-295zM460 907l-108 -183h287l107 183h-286z" />
    <glyph glyph-name="FL00FBh" unicode="&#xfb;" 
d="M752 663v-457q0 -8 -2.5 -15.5t-19.5 -7.5h-367q-17 0 -19 7.5t-2 15.5v457h-297v-451q0 -36 15.5 -73.5t44 -68t68.5 -50.5t88 -20h571q49 0 89 20t68 50.5t43 68t15 73.5v451h-295zM315 908l-110 -184h287l56 98l59 -98h288l-112 184h-468z" />
    <glyph glyph-name="FL00FCh" unicode="&#xfc;" 
d="M752 663h295v-451q0 -36 -15 -73.5t-43 -68t-68 -50.5t-89 -20h-571q-48 0 -88 20t-68.5 50.5t-44 68t-15.5 73.5v451h297v-457q0 -8 2 -15.5t19 -7.5h367q17 0 19.5 7.5t2.5 15.5v457zM894 907v-183h-297v183h297zM501 907v-183h-296v183h296z" />
    <glyph glyph-name="FL00FDh" unicode="&#xfd;" horiz-adv-x="1312" 
d="M516 153v-153h276v153l499 510h-361l-276 -272l-267 272h-366zM568 909l-109 -183h287l107 183h-285z" />
    <glyph glyph-name="FL00FEh" unicode="&#xfe;" horiz-adv-x="1152" 
d="M45 663v-663h281v356h466q11 0 21 -10.5t10 -20.5q0 -8 -4 -18.5t-18 -10.5h-408v-192h460q55 6 102 24t81 46.5t53 66.5t19 84q0 33 -14.5 70.5t-41 69t-64.5 52.5t-85 21h-577v125h-281z" />
    <glyph glyph-name="FL00FFh" unicode="&#xff;" horiz-adv-x="1312" 
d="M21 663h366l267 -272l276 272h361l-499 -510v-153h-276v153zM1000 908v-183h-296v183h296zM608 908v-183h-296v183h296z" />
    </font>
</defs>
</svg>
